<svg width="77" height="12" viewBox="0 0 77 12" fill="none" xmlns="http://www.w3.org/2000/svg">
<path d="M6.11914 6.29053H1.64404V11H0.237793V0.335938H6.84424V1.49316H1.64404V5.14062H6.11914V6.29053ZM7.79639 6.96436C7.79639 6.18799 7.94775 5.48975 8.25049 4.86963C8.55811 4.24951 8.98291 3.771 9.5249 3.43408C10.0718 3.09717 10.6943 2.92871 11.3926 2.92871C12.4717 2.92871 13.3433 3.30225 14.0073 4.04932C14.6763 4.79639 15.0107 5.79004 15.0107 7.03027V7.12549C15.0107 7.89697 14.8618 8.59033 14.564 9.20557C14.271 9.81592 13.8486 10.292 13.2969 10.6338C12.75 10.9756 12.1201 11.1465 11.4072 11.1465C10.333 11.1465 9.46143 10.7729 8.79248 10.0259C8.12842 9.27881 7.79639 8.29004 7.79639 7.05957V6.96436ZM9.15869 7.12549C9.15869 8.00439 9.36133 8.70996 9.7666 9.24219C10.1768 9.77441 10.7236 10.0405 11.4072 10.0405C12.0957 10.0405 12.6426 9.77197 13.0479 9.23486C13.4531 8.69287 13.6558 7.93604 13.6558 6.96436C13.6558 6.09521 13.4482 5.39209 13.0332 4.85498C12.623 4.31299 12.0762 4.04199 11.3926 4.04199C10.7236 4.04199 10.1841 4.30811 9.77393 4.84033C9.36377 5.37256 9.15869 6.13428 9.15869 7.12549ZM20.5405 4.29102C20.3354 4.25684 20.1133 4.23975 19.874 4.23975C18.9854 4.23975 18.3823 4.61816 18.0649 5.375V11H16.71V3.0752H18.0283L18.0503 3.99072C18.4946 3.28271 19.1245 2.92871 19.9399 2.92871C20.2036 2.92871 20.4038 2.96289 20.5405 3.03125V4.29102ZM25.7261 11V0.335938H28.7363C29.6641 0.335938 30.4844 0.541016 31.1973 0.951172C31.9102 1.36133 32.4595 1.94482 32.8452 2.70166C33.2358 3.4585 33.4336 4.32764 33.4385 5.30908V5.99023C33.4385 6.99609 33.2432 7.87744 32.8525 8.63428C32.4668 9.39111 31.9126 9.97217 31.1899 10.3774C30.4722 10.7827 29.6348 10.9902 28.6777 11H25.7261ZM27.1323 1.49316V9.8501H28.6118C29.6958 9.8501 30.5381 9.51318 31.1387 8.83936C31.7441 8.16553 32.0469 7.20605 32.0469 5.96094V5.33838C32.0469 4.12744 31.7612 3.1875 31.1899 2.51855C30.6235 1.84473 29.8179 1.50293 28.7729 1.49316H27.1323ZM34.9985 6.96436C34.9985 6.18799 35.1499 5.48975 35.4526 4.86963C35.7603 4.24951 36.1851 3.771 36.7271 3.43408C37.2739 3.09717 37.8965 2.92871 38.5947 2.92871C39.6738 2.92871 40.5454 3.30225 41.2095 4.04932C41.8784 4.79639 42.2129 5.79004 42.2129 7.03027V7.12549C42.2129 7.89697 42.064 8.59033 41.7661 9.20557C41.4731 9.81592 41.0508 10.292 40.499 10.6338C39.9521 10.9756 39.3223 11.1465 38.6094 11.1465C37.5352 11.1465 36.6636 10.7729 35.9946 10.0259C35.3306 9.27881 34.9985 8.29004 34.9985 7.05957V6.96436ZM36.3608 7.12549C36.3608 8.00439 36.5635 8.70996 36.9688 9.24219C37.3789 9.77441 37.9258 10.0405 38.6094 10.0405C39.2979 10.0405 39.8447 9.77197 40.25 9.23486C40.6553 8.69287 40.8579 7.93604 40.8579 6.96436C40.8579 6.09521 40.6504 5.39209 40.2354 4.85498C39.8252 4.31299 39.2783 4.04199 38.5947 4.04199C37.9258 4.04199 37.3862 4.30811 36.9761 4.84033C36.5659 5.37256 36.3608 6.13428 36.3608 7.12549ZM47.0908 10.0405C47.5742 10.0405 47.9966 9.89404 48.3579 9.60107C48.7192 9.30811 48.9194 8.94189 48.9585 8.50244H50.2402C50.2158 8.95654 50.0596 9.38867 49.7715 9.79883C49.4834 10.209 49.0977 10.5361 48.6143 10.7803C48.1357 11.0244 47.6279 11.1465 47.0908 11.1465C46.0117 11.1465 45.1523 10.7876 44.5127 10.0698C43.8779 9.34717 43.5605 8.36084 43.5605 7.11084V6.88379C43.5605 6.1123 43.7021 5.42627 43.9854 4.82568C44.2686 4.2251 44.6738 3.75879 45.2012 3.42676C45.7334 3.09473 46.3608 2.92871 47.0835 2.92871C47.9722 2.92871 48.7095 3.19482 49.2954 3.72705C49.8862 4.25928 50.2012 4.9502 50.2402 5.7998H48.9585C48.9194 5.28711 48.7241 4.86719 48.3726 4.54004C48.0259 4.20801 47.5962 4.04199 47.0835 4.04199C46.395 4.04199 45.8604 4.29102 45.4795 4.78906C45.1035 5.28223 44.9155 5.99756 44.9155 6.93506V7.19141C44.9155 8.10449 45.1035 8.80762 45.4795 9.30078C45.8555 9.79395 46.3926 10.0405 47.0908 10.0405ZM53.6021 1.15625V3.0752H55.0815V4.12256H53.6021V9.03711C53.6021 9.35449 53.668 9.59375 53.7998 9.75488C53.9316 9.91113 54.1562 9.98926 54.4736 9.98926C54.6299 9.98926 54.8447 9.95996 55.1182 9.90137V11C54.7617 11.0977 54.415 11.1465 54.0781 11.1465C53.4727 11.1465 53.0161 10.9634 52.7085 10.5972C52.4009 10.231 52.2471 9.71094 52.2471 9.03711V4.12256H50.8042V3.0752H52.2471V1.15625H53.6021ZM56.1655 6.96436C56.1655 6.18799 56.3169 5.48975 56.6196 4.86963C56.9272 4.24951 57.3521 3.771 57.894 3.43408C58.4409 3.09717 59.0635 2.92871 59.7617 2.92871C60.8408 2.92871 61.7124 3.30225 62.3765 4.04932C63.0454 4.79639 63.3799 5.79004 63.3799 7.03027V7.12549C63.3799 7.89697 63.231 8.59033 62.9331 9.20557C62.6401 9.81592 62.2178 10.292 61.666 10.6338C61.1191 10.9756 60.4893 11.1465 59.7764 11.1465C58.7021 11.1465 57.8306 10.7729 57.1616 10.0259C56.4976 9.27881 56.1655 8.29004 56.1655 7.05957V6.96436ZM57.5278 7.12549C57.5278 8.00439 57.7305 8.70996 58.1357 9.24219C58.5459 9.77441 59.0928 10.0405 59.7764 10.0405C60.4648 10.0405 61.0117 9.77197 61.417 9.23486C61.8223 8.69287 62.0249 7.93604 62.0249 6.96436C62.0249 6.09521 61.8174 5.39209 61.4023 4.85498C60.9922 4.31299 60.4453 4.04199 59.7617 4.04199C59.0928 4.04199 58.5532 4.30811 58.1431 4.84033C57.7329 5.37256 57.5278 6.13428 57.5278 7.12549ZM68.9097 4.29102C68.7046 4.25684 68.4824 4.23975 68.2432 4.23975C67.3545 4.23975 66.7515 4.61816 66.4341 5.375V11H65.0791V3.0752H66.3975L66.4194 3.99072C66.8638 3.28271 67.4937 2.92871 68.3091 2.92871C68.5728 2.92871 68.7729 2.96289 68.9097 3.03125V4.29102ZM74.7764 8.89795C74.7764 8.53174 74.6372 8.24854 74.3589 8.04834C74.0854 7.84326 73.6045 7.66748 72.916 7.521C72.2324 7.37451 71.688 7.19873 71.2827 6.99365C70.8823 6.78857 70.5845 6.54443 70.3892 6.26123C70.1987 5.97803 70.1035 5.64111 70.1035 5.25049C70.1035 4.60107 70.377 4.05176 70.9238 3.60254C71.4756 3.15332 72.1787 2.92871 73.0332 2.92871C73.9316 2.92871 74.6592 3.16064 75.2158 3.62451C75.7773 4.08838 76.0581 4.68164 76.0581 5.4043H74.6958C74.6958 5.0332 74.5371 4.71338 74.2197 4.44482C73.9072 4.17627 73.5117 4.04199 73.0332 4.04199C72.54 4.04199 72.1543 4.14941 71.876 4.36426C71.5977 4.5791 71.4585 4.85986 71.4585 5.20654C71.4585 5.53369 71.5879 5.78027 71.8467 5.94629C72.1055 6.1123 72.5718 6.271 73.2456 6.42236C73.9243 6.57373 74.4736 6.75439 74.8936 6.96436C75.3135 7.17432 75.6235 7.42822 75.8237 7.72607C76.0288 8.01904 76.1313 8.37793 76.1313 8.80273C76.1313 9.51074 75.8481 10.0796 75.2817 10.5093C74.7153 10.9341 73.9805 11.1465 73.0771 11.1465C72.4424 11.1465 71.8809 11.0342 71.3926 10.8096C70.9043 10.585 70.521 10.2725 70.2427 9.87207C69.9692 9.4668 69.8325 9.02979 69.8325 8.56104H71.1875C71.2119 9.01514 71.3926 9.37646 71.7295 9.64502C72.0713 9.90869 72.5205 10.0405 73.0771 10.0405C73.5898 10.0405 74 9.93799 74.3076 9.73291C74.6201 9.52295 74.7764 9.24463 74.7764 8.89795Z" fill="#071330"/>
</svg>
