<svg width="79" height="12" viewBox="0 0 79 12" fill="none" xmlns="http://www.w3.org/2000/svg">
<path d="M6.11914 6.29053H1.64404V11H0.237793V0.335938H6.84424V1.49316H1.64404V5.14062H6.11914V6.29053ZM7.79639 6.96436C7.79639 6.18799 7.94775 5.48975 8.25049 4.86963C8.55811 4.24951 8.98291 3.771 9.5249 3.43408C10.0718 3.09717 10.6943 2.92871 11.3926 2.92871C12.4717 2.92871 13.3433 3.30225 14.0073 4.04932C14.6763 4.79639 15.0107 5.79004 15.0107 7.03027V7.12549C15.0107 7.89697 14.8618 8.59033 14.564 9.20557C14.271 9.81592 13.8486 10.292 13.2969 10.6338C12.75 10.9756 12.1201 11.1465 11.4072 11.1465C10.333 11.1465 9.46143 10.7729 8.79248 10.0259C8.12842 9.27881 7.79639 8.29004 7.79639 7.05957V6.96436ZM9.15869 7.12549C9.15869 8.00439 9.36133 8.70996 9.7666 9.24219C10.1768 9.77441 10.7236 10.0405 11.4072 10.0405C12.0957 10.0405 12.6426 9.77197 13.0479 9.23486C13.4531 8.69287 13.6558 7.93604 13.6558 6.96436C13.6558 6.09521 13.4482 5.39209 13.0332 4.85498C12.623 4.31299 12.0762 4.04199 11.3926 4.04199C10.7236 4.04199 10.1841 4.30811 9.77393 4.84033C9.36377 5.37256 9.15869 6.13428 9.15869 7.12549ZM20.5405 4.29102C20.3354 4.25684 20.1133 4.23975 19.874 4.23975C18.9854 4.23975 18.3823 4.61816 18.0649 5.375V11H16.71V3.0752H18.0283L18.0503 3.99072C18.4946 3.28271 19.1245 2.92871 19.9399 2.92871C20.2036 2.92871 20.4038 2.96289 20.5405 3.03125V4.29102ZM27.1323 6.8252V11H25.7261V0.335938H29.6592C30.8262 0.335938 31.7393 0.633789 32.3984 1.22949C33.0625 1.8252 33.3945 2.61377 33.3945 3.59521C33.3945 4.63037 33.0698 5.42871 32.4204 5.99023C31.7759 6.54688 30.8506 6.8252 29.6445 6.8252H27.1323ZM27.1323 5.67529H29.6592C30.4111 5.67529 30.9873 5.49951 31.3877 5.14795C31.7881 4.7915 31.9883 4.27881 31.9883 3.60986C31.9883 2.9751 31.7881 2.46729 31.3877 2.08643C30.9873 1.70557 30.438 1.50781 29.7397 1.49316H27.1323V5.67529ZM39.7812 11C39.7031 10.8438 39.6396 10.5654 39.5908 10.165C38.9609 10.8193 38.209 11.1465 37.335 11.1465C36.5537 11.1465 35.9116 10.9268 35.4087 10.4873C34.9106 10.043 34.6616 9.48145 34.6616 8.80273C34.6616 7.97754 34.9741 7.33789 35.5991 6.88379C36.229 6.4248 37.1128 6.19531 38.2505 6.19531H39.5688V5.57275C39.5688 5.09912 39.4272 4.72314 39.144 4.44482C38.8608 4.16162 38.4434 4.02002 37.8916 4.02002C37.4082 4.02002 37.0029 4.14209 36.6758 4.38623C36.3486 4.63037 36.1851 4.92578 36.1851 5.27246H34.8228C34.8228 4.87695 34.9619 4.49609 35.2402 4.12988C35.5234 3.75879 35.9043 3.46582 36.3828 3.25098C36.8662 3.03613 37.396 2.92871 37.9722 2.92871C38.8853 2.92871 39.6006 3.1582 40.1182 3.61719C40.6357 4.07129 40.9043 4.69873 40.9238 5.49951V9.14697C40.9238 9.87451 41.0166 10.4531 41.2021 10.8828V11H39.7812ZM37.5327 9.96729C37.9575 9.96729 38.3604 9.85742 38.7412 9.6377C39.1221 9.41797 39.3979 9.13232 39.5688 8.78076V7.15479H38.5068C36.8467 7.15479 36.0166 7.64062 36.0166 8.6123C36.0166 9.03711 36.1582 9.36914 36.4414 9.6084C36.7246 9.84766 37.0884 9.96729 37.5327 9.96729ZM44.8862 1.15625V3.0752H46.3657V4.12256H44.8862V9.03711C44.8862 9.35449 44.9521 9.59375 45.084 9.75488C45.2158 9.91113 45.4404 9.98926 45.7578 9.98926C45.9141 9.98926 46.1289 9.95996 46.4023 9.90137V11C46.0459 11.0977 45.6992 11.1465 45.3623 11.1465C44.7568 11.1465 44.3003 10.9634 43.9927 10.5972C43.6851 10.231 43.5312 9.71094 43.5312 9.03711V4.12256H42.0884V3.0752H43.5312V1.15625H44.8862ZM49.4272 11H48.0723V3.0752H49.4272V11ZM47.9624 0.973145C47.9624 0.753418 48.0283 0.567871 48.1602 0.416504C48.2969 0.265137 48.4971 0.189453 48.7607 0.189453C49.0244 0.189453 49.2246 0.265137 49.3613 0.416504C49.498 0.567871 49.5664 0.753418 49.5664 0.973145C49.5664 1.19287 49.498 1.37598 49.3613 1.52246C49.2246 1.66895 49.0244 1.74219 48.7607 1.74219C48.4971 1.74219 48.2969 1.66895 48.1602 1.52246C48.0283 1.37598 47.9624 1.19287 47.9624 0.973145ZM54.8911 11.1465C53.8169 11.1465 52.9429 10.7949 52.269 10.0918C51.5952 9.38379 51.2583 8.43896 51.2583 7.25732V7.0083C51.2583 6.22217 51.4072 5.52148 51.7051 4.90625C52.0078 4.28613 52.4277 3.80273 52.9648 3.45605C53.5068 3.10449 54.0928 2.92871 54.7227 2.92871C55.7529 2.92871 56.5537 3.26807 57.125 3.94678C57.6963 4.62549 57.9819 5.59717 57.9819 6.86182V7.42578H52.6133C52.6328 8.20703 52.8599 8.83936 53.2944 9.32275C53.7339 9.80127 54.2905 10.0405 54.9644 10.0405C55.4429 10.0405 55.8481 9.94287 56.1802 9.74756C56.5122 9.55225 56.8027 9.29346 57.0518 8.97119L57.8794 9.61572C57.2153 10.6362 56.2192 11.1465 54.8911 11.1465ZM54.7227 4.04199C54.1758 4.04199 53.7168 4.24219 53.3457 4.64258C52.9746 5.03809 52.7451 5.59473 52.6572 6.3125H56.627V6.20996C56.5879 5.52148 56.4023 4.98926 56.0703 4.61328C55.7383 4.23242 55.2891 4.04199 54.7227 4.04199ZM60.8384 3.0752L60.8823 4.07129C61.4878 3.30957 62.2788 2.92871 63.2554 2.92871C64.9302 2.92871 65.7749 3.87354 65.7896 5.76318V11H64.4346V5.75586C64.4297 5.18457 64.2979 4.76221 64.0391 4.48877C63.7852 4.21533 63.3872 4.07861 62.8452 4.07861C62.4058 4.07861 62.02 4.1958 61.688 4.43018C61.356 4.66455 61.0972 4.97217 60.9116 5.35303V11H59.5566V3.0752H60.8384ZM69.6714 1.15625V3.0752H71.1509V4.12256H69.6714V9.03711C69.6714 9.35449 69.7373 9.59375 69.8691 9.75488C70.001 9.91113 70.2256 9.98926 70.543 9.98926C70.6992 9.98926 70.9141 9.95996 71.1875 9.90137V11C70.8311 11.0977 70.4844 11.1465 70.1475 11.1465C69.542 11.1465 69.0854 10.9634 68.7778 10.5972C68.4702 10.231 68.3164 9.71094 68.3164 9.03711V4.12256H66.8735V3.0752H68.3164V1.15625H69.6714ZM77.3545 8.89795C77.3545 8.53174 77.2153 8.24854 76.937 8.04834C76.6636 7.84326 76.1826 7.66748 75.4941 7.521C74.8105 7.37451 74.2661 7.19873 73.8608 6.99365C73.4604 6.78857 73.1626 6.54443 72.9673 6.26123C72.7769 5.97803 72.6816 5.64111 72.6816 5.25049C72.6816 4.60107 72.9551 4.05176 73.502 3.60254C74.0537 3.15332 74.7568 2.92871 75.6113 2.92871C76.5098 2.92871 77.2373 3.16064 77.7939 3.62451C78.3555 4.08838 78.6362 4.68164 78.6362 5.4043H77.2739C77.2739 5.0332 77.1152 4.71338 76.7979 4.44482C76.4854 4.17627 76.0898 4.04199 75.6113 4.04199C75.1182 4.04199 74.7324 4.14941 74.4541 4.36426C74.1758 4.5791 74.0366 4.85986 74.0366 5.20654C74.0366 5.53369 74.166 5.78027 74.4248 5.94629C74.6836 6.1123 75.1499 6.271 75.8237 6.42236C76.5024 6.57373 77.0518 6.75439 77.4717 6.96436C77.8916 7.17432 78.2017 7.42822 78.4019 7.72607C78.6069 8.01904 78.7095 8.37793 78.7095 8.80273C78.7095 9.51074 78.4263 10.0796 77.8599 10.5093C77.2935 10.9341 76.5586 11.1465 75.6553 11.1465C75.0205 11.1465 74.459 11.0342 73.9707 10.8096C73.4824 10.585 73.0991 10.2725 72.8208 9.87207C72.5474 9.4668 72.4106 9.02979 72.4106 8.56104H73.7656C73.79 9.01514 73.9707 9.37646 74.3076 9.64502C74.6494 9.90869 75.0986 10.0405 75.6553 10.0405C76.168 10.0405 76.5781 9.93799 76.8857 9.73291C77.1982 9.52295 77.3545 9.24463 77.3545 8.89795Z" fill="#071330"/>
</svg>
