<svg width="554" height="481" viewBox="0 0 554 481" fill="none" xmlns="http://www.w3.org/2000/svg">
<path d="M30.1787 264.823H27.1729V270H25.4766V257.203H29.7129C31.1543 257.203 32.2617 257.531 33.0352 258.188C33.8145 258.844 34.2041 259.799 34.2041 261.053C34.2041 261.85 33.9873 262.544 33.5537 263.136C33.126 263.728 32.5283 264.17 31.7607 264.463L34.7666 269.895V270H32.9561L30.1787 264.823ZM27.1729 263.443H29.7656C30.6035 263.443 31.2686 263.227 31.7607 262.793C32.2588 262.359 32.5078 261.779 32.5078 261.053C32.5078 260.262 32.2705 259.655 31.7959 259.233C31.3271 258.812 30.6475 258.598 29.7568 258.592H27.1729V263.443ZM40.2686 270.176C38.9795 270.176 37.9307 269.754 37.1221 268.91C36.3135 268.061 35.9092 266.927 35.9092 265.509V265.21C35.9092 264.267 36.0879 263.426 36.4453 262.688C36.8086 261.943 37.3125 261.363 37.957 260.947C38.6074 260.525 39.3105 260.314 40.0664 260.314C41.3027 260.314 42.2637 260.722 42.9492 261.536C43.6348 262.351 43.9775 263.517 43.9775 265.034V265.711H37.5352C37.5586 266.648 37.8311 267.407 38.3525 267.987C38.8799 268.562 39.5479 268.849 40.3564 268.849C40.9307 268.849 41.417 268.731 41.8154 268.497C42.2139 268.263 42.5625 267.952 42.8613 267.565L43.8545 268.339C43.0576 269.563 41.8623 270.176 40.2686 270.176ZM40.0664 261.65C39.4102 261.65 38.8594 261.891 38.4141 262.371C37.9688 262.846 37.6934 263.514 37.5879 264.375H42.3516V264.252C42.3047 263.426 42.082 262.787 41.6836 262.336C41.2852 261.879 40.7461 261.65 40.0664 261.65ZM47.3965 260.49L47.4404 261.545C48.1377 260.725 49.0781 260.314 50.2617 260.314C51.5918 260.314 52.4971 260.824 52.9775 261.844C53.2939 261.387 53.7041 261.018 54.208 260.736C54.7178 260.455 55.3184 260.314 56.0098 260.314C58.0957 260.314 59.1562 261.419 59.1914 263.628V270H57.5654V263.725C57.5654 263.045 57.4102 262.538 57.0996 262.204C56.7891 261.864 56.2676 261.694 55.5352 261.694C54.9316 261.694 54.4307 261.876 54.0322 262.239C53.6338 262.597 53.4023 263.08 53.3379 263.689V270H51.7031V263.769C51.7031 262.386 51.0264 261.694 49.6729 261.694C48.6064 261.694 47.877 262.148 47.4844 263.057V270H45.8584V260.49H47.3965ZM63.1816 260.49L63.2256 261.545C63.9229 260.725 64.8633 260.314 66.0469 260.314C67.377 260.314 68.2822 260.824 68.7627 261.844C69.0791 261.387 69.4893 261.018 69.9932 260.736C70.5029 260.455 71.1035 260.314 71.7949 260.314C73.8809 260.314 74.9414 261.419 74.9766 263.628V270H73.3506V263.725C73.3506 263.045 73.1953 262.538 72.8848 262.204C72.5742 261.864 72.0527 261.694 71.3203 261.694C70.7168 261.694 70.2158 261.876 69.8174 262.239C69.4189 262.597 69.1875 263.08 69.123 263.689V270H67.4883V263.769C67.4883 262.386 66.8115 261.694 65.458 261.694C64.3916 261.694 63.6621 262.148 63.2695 263.057V270H61.6436V260.49H63.1816ZM80.5488 267.618L82.7637 260.49H84.5039L80.6807 271.468C80.0889 273.05 79.1484 273.841 77.8594 273.841L77.5518 273.814L76.9453 273.7V272.382L77.3848 272.417C77.9355 272.417 78.3633 272.306 78.668 272.083C78.9785 271.86 79.2334 271.453 79.4326 270.861L79.793 269.895L76.4004 260.49H78.1758L80.5488 267.618ZM92.0537 261.642C92.7744 260.757 93.7119 260.314 94.8662 260.314C96.876 260.314 97.8896 261.448 97.9072 263.716V270H96.2812V263.707C96.2754 263.021 96.1172 262.515 95.8066 262.187C95.502 261.858 95.0244 261.694 94.374 261.694C93.8467 261.694 93.3838 261.835 92.9854 262.116C92.5869 262.397 92.2764 262.767 92.0537 263.224V270H90.4277V256.5H92.0537V261.642ZM104.288 270.176C102.999 270.176 101.95 269.754 101.142 268.91C100.333 268.061 99.9287 266.927 99.9287 265.509V265.21C99.9287 264.267 100.107 263.426 100.465 262.688C100.828 261.943 101.332 261.363 101.977 260.947C102.627 260.525 103.33 260.314 104.086 260.314C105.322 260.314 106.283 260.722 106.969 261.536C107.654 262.351 107.997 263.517 107.997 265.034V265.711H101.555C101.578 266.648 101.851 267.407 102.372 267.987C102.899 268.562 103.567 268.849 104.376 268.849C104.95 268.849 105.437 268.731 105.835 268.497C106.233 268.263 106.582 267.952 106.881 267.565L107.874 268.339C107.077 269.563 105.882 270.176 104.288 270.176ZM104.086 261.65C103.43 261.65 102.879 261.891 102.434 262.371C101.988 262.846 101.713 263.514 101.607 264.375H106.371V264.252C106.324 263.426 106.102 262.787 105.703 262.336C105.305 261.879 104.766 261.65 104.086 261.65ZM111.653 270H110.027V256.5H111.653V270ZM122.297 265.351C122.297 266.798 121.966 267.964 121.304 268.849C120.642 269.733 119.745 270.176 118.614 270.176C117.46 270.176 116.552 269.81 115.89 269.077V273.656H114.264V260.49H115.749L115.828 261.545C116.49 260.725 117.41 260.314 118.588 260.314C119.73 260.314 120.633 260.745 121.295 261.606C121.963 262.468 122.297 263.666 122.297 265.201V265.351ZM120.671 265.166C120.671 264.094 120.442 263.247 119.985 262.626C119.528 262.005 118.901 261.694 118.104 261.694C117.12 261.694 116.382 262.131 115.89 263.004V267.548C116.376 268.415 117.12 268.849 118.122 268.849C118.901 268.849 119.52 268.541 119.977 267.926C120.439 267.305 120.671 266.385 120.671 265.166ZM129.908 267.478C129.908 267.038 129.741 266.698 129.407 266.458C129.079 266.212 128.502 266.001 127.676 265.825C126.855 265.649 126.202 265.438 125.716 265.192C125.235 264.946 124.878 264.653 124.644 264.313C124.415 263.974 124.301 263.569 124.301 263.101C124.301 262.321 124.629 261.662 125.285 261.123C125.947 260.584 126.791 260.314 127.816 260.314C128.895 260.314 129.768 260.593 130.436 261.149C131.109 261.706 131.446 262.418 131.446 263.285H129.812C129.812 262.84 129.621 262.456 129.24 262.134C128.865 261.812 128.391 261.65 127.816 261.65C127.225 261.65 126.762 261.779 126.428 262.037C126.094 262.295 125.927 262.632 125.927 263.048C125.927 263.44 126.082 263.736 126.393 263.936C126.703 264.135 127.263 264.325 128.071 264.507C128.886 264.688 129.545 264.905 130.049 265.157C130.553 265.409 130.925 265.714 131.165 266.071C131.411 266.423 131.534 266.854 131.534 267.363C131.534 268.213 131.194 268.896 130.515 269.411C129.835 269.921 128.953 270.176 127.869 270.176C127.107 270.176 126.434 270.041 125.848 269.771C125.262 269.502 124.802 269.127 124.468 268.646C124.14 268.16 123.976 267.636 123.976 267.073H125.602C125.631 267.618 125.848 268.052 126.252 268.374C126.662 268.69 127.201 268.849 127.869 268.849C128.484 268.849 128.977 268.726 129.346 268.479C129.721 268.228 129.908 267.894 129.908 267.478ZM141.229 267.618L143.443 260.49H145.184L141.36 271.468C140.769 273.05 139.828 273.841 138.539 273.841L138.231 273.814L137.625 273.7V272.382L138.064 272.417C138.615 272.417 139.043 272.306 139.348 272.083C139.658 271.86 139.913 271.453 140.112 270.861L140.473 269.895L137.08 260.49H138.855L141.229 267.618ZM146.071 265.157C146.071 264.226 146.253 263.388 146.616 262.644C146.985 261.899 147.495 261.325 148.146 260.921C148.802 260.517 149.549 260.314 150.387 260.314C151.682 260.314 152.728 260.763 153.524 261.659C154.327 262.556 154.729 263.748 154.729 265.236V265.351C154.729 266.276 154.55 267.108 154.192 267.847C153.841 268.579 153.334 269.15 152.672 269.561C152.016 269.971 151.26 270.176 150.404 270.176C149.115 270.176 148.069 269.728 147.267 268.831C146.47 267.935 146.071 266.748 146.071 265.271V265.157ZM147.706 265.351C147.706 266.405 147.949 267.252 148.436 267.891C148.928 268.529 149.584 268.849 150.404 268.849C151.23 268.849 151.887 268.526 152.373 267.882C152.859 267.231 153.103 266.323 153.103 265.157C153.103 264.114 152.854 263.271 152.355 262.626C151.863 261.976 151.207 261.65 150.387 261.65C149.584 261.65 148.937 261.97 148.444 262.608C147.952 263.247 147.706 264.161 147.706 265.351ZM162.639 269.06C162.006 269.804 161.077 270.176 159.853 270.176C158.839 270.176 158.065 269.883 157.532 269.297C157.005 268.705 156.738 267.832 156.732 266.678V260.49H158.358V266.634C158.358 268.075 158.944 268.796 160.116 268.796C161.358 268.796 162.185 268.333 162.595 267.407V260.49H164.221V270H162.674L162.639 269.06ZM177.035 269.06C176.402 269.804 175.474 270.176 174.249 270.176C173.235 270.176 172.462 269.883 171.929 269.297C171.401 268.705 171.135 267.832 171.129 266.678V260.49H172.755V266.634C172.755 268.075 173.341 268.796 174.513 268.796C175.755 268.796 176.581 268.333 176.991 267.407V260.49H178.617V270H177.07L177.035 269.06ZM182.634 260.49L182.687 261.686C183.413 260.771 184.362 260.314 185.534 260.314C187.544 260.314 188.558 261.448 188.575 263.716V270H186.949V263.707C186.943 263.021 186.785 262.515 186.475 262.187C186.17 261.858 185.692 261.694 185.042 261.694C184.515 261.694 184.052 261.835 183.653 262.116C183.255 262.397 182.944 262.767 182.722 263.224V270H181.096V260.49H182.634ZM194.842 268.849C195.422 268.849 195.929 268.673 196.362 268.321C196.796 267.97 197.036 267.53 197.083 267.003H198.621C198.592 267.548 198.404 268.066 198.059 268.559C197.713 269.051 197.25 269.443 196.67 269.736C196.096 270.029 195.486 270.176 194.842 270.176C193.547 270.176 192.516 269.745 191.748 268.884C190.986 268.017 190.605 266.833 190.605 265.333V265.061C190.605 264.135 190.775 263.312 191.115 262.591C191.455 261.87 191.941 261.311 192.574 260.912C193.213 260.514 193.966 260.314 194.833 260.314C195.899 260.314 196.784 260.634 197.487 261.272C198.196 261.911 198.574 262.74 198.621 263.76H197.083C197.036 263.145 196.802 262.641 196.38 262.248C195.964 261.85 195.448 261.65 194.833 261.65C194.007 261.65 193.365 261.949 192.908 262.547C192.457 263.139 192.231 263.997 192.231 265.122V265.43C192.231 266.525 192.457 267.369 192.908 267.961C193.359 268.553 194.004 268.849 194.842 268.849ZM200.019 265.157C200.019 264.226 200.2 263.388 200.563 262.644C200.933 261.899 201.442 261.325 202.093 260.921C202.749 260.517 203.496 260.314 204.334 260.314C205.629 260.314 206.675 260.763 207.472 261.659C208.274 262.556 208.676 263.748 208.676 265.236V265.351C208.676 266.276 208.497 267.108 208.14 267.847C207.788 268.579 207.281 269.15 206.619 269.561C205.963 269.971 205.207 270.176 204.352 270.176C203.062 270.176 202.017 269.728 201.214 268.831C200.417 267.935 200.019 266.748 200.019 265.271V265.157ZM201.653 265.351C201.653 266.405 201.896 267.252 202.383 267.891C202.875 268.529 203.531 268.849 204.352 268.849C205.178 268.849 205.834 268.526 206.32 267.882C206.807 267.231 207.05 266.323 207.05 265.157C207.05 264.114 206.801 263.271 206.303 262.626C205.811 261.976 205.154 261.65 204.334 261.65C203.531 261.65 202.884 261.97 202.392 262.608C201.899 263.247 201.653 264.161 201.653 265.351ZM213.712 267.794L216.067 260.49H217.729L214.318 270H213.079L209.634 260.49H211.295L213.712 267.794ZM223.116 270.176C221.827 270.176 220.778 269.754 219.97 268.91C219.161 268.061 218.757 266.927 218.757 265.509V265.21C218.757 264.267 218.936 263.426 219.293 262.688C219.656 261.943 220.16 261.363 220.805 260.947C221.455 260.525 222.158 260.314 222.914 260.314C224.15 260.314 225.111 260.722 225.797 261.536C226.482 262.351 226.825 263.517 226.825 265.034V265.711H220.383C220.406 266.648 220.679 267.407 221.2 267.987C221.728 268.562 222.396 268.849 223.204 268.849C223.778 268.849 224.265 268.731 224.663 268.497C225.062 268.263 225.41 267.952 225.709 267.565L226.702 268.339C225.905 269.563 224.71 270.176 223.116 270.176ZM222.914 261.65C222.258 261.65 221.707 261.891 221.262 262.371C220.816 262.846 220.541 263.514 220.436 264.375H225.199V264.252C225.152 263.426 224.93 262.787 224.531 262.336C224.133 261.879 223.594 261.65 222.914 261.65ZM233.312 261.949C233.065 261.908 232.799 261.888 232.512 261.888C231.445 261.888 230.722 262.342 230.341 263.25V270H228.715V260.49H230.297L230.323 261.589C230.856 260.739 231.612 260.314 232.591 260.314C232.907 260.314 233.147 260.355 233.312 260.438V261.949ZM241.485 258.188V260.49H243.261V261.747H241.485V267.645C241.485 268.025 241.564 268.312 241.723 268.506C241.881 268.693 242.15 268.787 242.531 268.787C242.719 268.787 242.977 268.752 243.305 268.682V270C242.877 270.117 242.461 270.176 242.057 270.176C241.33 270.176 240.782 269.956 240.413 269.517C240.044 269.077 239.859 268.453 239.859 267.645V261.747H238.128V260.49H239.859V258.188H241.485ZM246.794 261.642C247.515 260.757 248.452 260.314 249.606 260.314C251.616 260.314 252.63 261.448 252.647 263.716V270H251.021V263.707C251.016 263.021 250.857 262.515 250.547 262.187C250.242 261.858 249.765 261.694 249.114 261.694C248.587 261.694 248.124 261.835 247.726 262.116C247.327 262.397 247.017 262.767 246.794 263.224V270H245.168V256.5H246.794V261.642ZM259.028 270.176C257.739 270.176 256.69 269.754 255.882 268.91C255.073 268.061 254.669 266.927 254.669 265.509V265.21C254.669 264.267 254.848 263.426 255.205 262.688C255.568 261.943 256.072 261.363 256.717 260.947C257.367 260.525 258.07 260.314 258.826 260.314C260.062 260.314 261.023 260.722 261.709 261.536C262.395 262.351 262.737 263.517 262.737 265.034V265.711H256.295C256.318 266.648 256.591 267.407 257.112 267.987C257.64 268.562 258.308 268.849 259.116 268.849C259.69 268.849 260.177 268.731 260.575 268.497C260.974 268.263 261.322 267.952 261.621 267.565L262.614 268.339C261.817 269.563 260.622 270.176 259.028 270.176ZM258.826 261.65C258.17 261.65 257.619 261.891 257.174 262.371C256.729 262.846 256.453 263.514 256.348 264.375H261.111V264.252C261.064 263.426 260.842 262.787 260.443 262.336C260.045 261.879 259.506 261.65 258.826 261.65ZM270.621 260.49L270.665 261.545C271.362 260.725 272.303 260.314 273.486 260.314C274.816 260.314 275.722 260.824 276.202 261.844C276.519 261.387 276.929 261.018 277.433 260.736C277.942 260.455 278.543 260.314 279.234 260.314C281.32 260.314 282.381 261.419 282.416 263.628V270H280.79V263.725C280.79 263.045 280.635 262.538 280.324 262.204C280.014 261.864 279.492 261.694 278.76 261.694C278.156 261.694 277.655 261.876 277.257 262.239C276.858 262.597 276.627 263.08 276.562 263.689V270H274.928V263.769C274.928 262.386 274.251 261.694 272.897 261.694C271.831 261.694 271.102 262.148 270.709 263.057V270H269.083V260.49H270.621ZM284.446 265.157C284.446 264.226 284.628 263.388 284.991 262.644C285.36 261.899 285.87 261.325 286.521 260.921C287.177 260.517 287.924 260.314 288.762 260.314C290.057 260.314 291.103 260.763 291.899 261.659C292.702 262.556 293.104 263.748 293.104 265.236V265.351C293.104 266.276 292.925 267.108 292.567 267.847C292.216 268.579 291.709 269.15 291.047 269.561C290.391 269.971 289.635 270.176 288.779 270.176C287.49 270.176 286.444 269.728 285.642 268.831C284.845 267.935 284.446 266.748 284.446 265.271V265.157ZM286.081 265.351C286.081 266.405 286.324 267.252 286.811 267.891C287.303 268.529 287.959 268.849 288.779 268.849C289.605 268.849 290.262 268.526 290.748 267.882C291.234 267.231 291.478 266.323 291.478 265.157C291.478 264.114 291.229 263.271 290.73 262.626C290.238 261.976 289.582 261.65 288.762 261.65C287.959 261.65 287.312 261.97 286.819 262.608C286.327 263.247 286.081 264.161 286.081 265.351ZM300.68 267.478C300.68 267.038 300.513 266.698 300.179 266.458C299.851 266.212 299.273 266.001 298.447 265.825C297.627 265.649 296.974 265.438 296.487 265.192C296.007 264.946 295.649 264.653 295.415 264.313C295.187 263.974 295.072 263.569 295.072 263.101C295.072 262.321 295.4 261.662 296.057 261.123C296.719 260.584 297.562 260.314 298.588 260.314C299.666 260.314 300.539 260.593 301.207 261.149C301.881 261.706 302.218 262.418 302.218 263.285H300.583C300.583 262.84 300.393 262.456 300.012 262.134C299.637 261.812 299.162 261.65 298.588 261.65C297.996 261.65 297.533 261.779 297.199 262.037C296.865 262.295 296.698 262.632 296.698 263.048C296.698 263.44 296.854 263.736 297.164 263.936C297.475 264.135 298.034 264.325 298.843 264.507C299.657 264.688 300.316 264.905 300.82 265.157C301.324 265.409 301.696 265.714 301.937 266.071C302.183 266.423 302.306 266.854 302.306 267.363C302.306 268.213 301.966 268.896 301.286 269.411C300.606 269.921 299.725 270.176 298.641 270.176C297.879 270.176 297.205 270.041 296.619 269.771C296.033 269.502 295.573 269.127 295.239 268.646C294.911 268.16 294.747 267.636 294.747 267.073H296.373C296.402 267.618 296.619 268.052 297.023 268.374C297.434 268.69 297.973 268.849 298.641 268.849C299.256 268.849 299.748 268.726 300.117 268.479C300.492 268.228 300.68 267.894 300.68 267.478ZM306.63 258.188V260.49H308.405V261.747H306.63V267.645C306.63 268.025 306.709 268.312 306.867 268.506C307.025 268.693 307.295 268.787 307.676 268.787C307.863 268.787 308.121 268.752 308.449 268.682V270C308.021 270.117 307.605 270.176 307.201 270.176C306.475 270.176 305.927 269.956 305.558 269.517C305.188 269.077 305.004 268.453 305.004 267.645V261.747H303.272V260.49H305.004V258.188H306.63ZM318.724 270.176C317.435 270.176 316.386 269.754 315.577 268.91C314.769 268.061 314.364 266.927 314.364 265.509V265.21C314.364 264.267 314.543 263.426 314.9 262.688C315.264 261.943 315.768 261.363 316.412 260.947C317.062 260.525 317.766 260.314 318.521 260.314C319.758 260.314 320.719 260.722 321.404 261.536C322.09 262.351 322.433 263.517 322.433 265.034V265.711H315.99C316.014 266.648 316.286 267.407 316.808 267.987C317.335 268.562 318.003 268.849 318.812 268.849C319.386 268.849 319.872 268.731 320.271 268.497C320.669 268.263 321.018 267.952 321.316 267.565L322.31 268.339C321.513 269.563 320.317 270.176 318.724 270.176ZM318.521 261.65C317.865 261.65 317.314 261.891 316.869 262.371C316.424 262.846 316.148 263.514 316.043 264.375H320.807V264.252C320.76 263.426 320.537 262.787 320.139 262.336C319.74 261.879 319.201 261.65 318.521 261.65ZM325.122 270V261.747H323.619V260.49H325.122V259.515C325.122 258.495 325.395 257.707 325.939 257.15C326.484 256.594 327.255 256.315 328.251 256.315C328.626 256.315 328.998 256.365 329.367 256.465L329.279 257.783C329.004 257.73 328.711 257.704 328.4 257.704C327.873 257.704 327.466 257.859 327.179 258.17C326.892 258.475 326.748 258.914 326.748 259.488V260.49H328.778V261.747H326.748V270H325.122ZM331.38 270V261.747H329.877V260.49H331.38V259.515C331.38 258.495 331.652 257.707 332.197 257.15C332.742 256.594 333.513 256.315 334.509 256.315C334.884 256.315 335.256 256.365 335.625 256.465L335.537 257.783C335.262 257.73 334.969 257.704 334.658 257.704C334.131 257.704 333.724 257.859 333.437 258.17C333.149 258.475 333.006 258.914 333.006 259.488V260.49H335.036V261.747H333.006V270H331.38ZM340.573 270.176C339.284 270.176 338.235 269.754 337.427 268.91C336.618 268.061 336.214 266.927 336.214 265.509V265.21C336.214 264.267 336.393 263.426 336.75 262.688C337.113 261.943 337.617 261.363 338.262 260.947C338.912 260.525 339.615 260.314 340.371 260.314C341.607 260.314 342.568 260.722 343.254 261.536C343.939 262.351 344.282 263.517 344.282 265.034V265.711H337.84C337.863 266.648 338.136 267.407 338.657 267.987C339.185 268.562 339.853 268.849 340.661 268.849C341.235 268.849 341.722 268.731 342.12 268.497C342.519 268.263 342.867 267.952 343.166 267.565L344.159 268.339C343.362 269.563 342.167 270.176 340.573 270.176ZM340.371 261.65C339.715 261.65 339.164 261.891 338.719 262.371C338.273 262.846 337.998 263.514 337.893 264.375H342.656V264.252C342.609 263.426 342.387 262.787 341.988 262.336C341.59 261.879 341.051 261.65 340.371 261.65ZM349.986 268.849C350.566 268.849 351.073 268.673 351.507 268.321C351.94 267.97 352.181 267.53 352.228 267.003H353.766C353.736 267.548 353.549 268.066 353.203 268.559C352.857 269.051 352.395 269.443 351.814 269.736C351.24 270.029 350.631 270.176 349.986 270.176C348.691 270.176 347.66 269.745 346.893 268.884C346.131 268.017 345.75 266.833 345.75 265.333V265.061C345.75 264.135 345.92 263.312 346.26 262.591C346.6 261.87 347.086 261.311 347.719 260.912C348.357 260.514 349.11 260.314 349.978 260.314C351.044 260.314 351.929 260.634 352.632 261.272C353.341 261.911 353.719 262.74 353.766 263.76H352.228C352.181 263.145 351.946 262.641 351.524 262.248C351.108 261.85 350.593 261.65 349.978 261.65C349.151 261.65 348.51 261.949 348.053 262.547C347.602 263.139 347.376 263.997 347.376 265.122V265.43C347.376 266.525 347.602 267.369 348.053 267.961C348.504 268.553 349.148 268.849 349.986 268.849ZM357.8 258.188V260.49H359.575V261.747H357.8V267.645C357.8 268.025 357.879 268.312 358.037 268.506C358.195 268.693 358.465 268.787 358.846 268.787C359.033 268.787 359.291 268.752 359.619 268.682V270C359.191 270.117 358.775 270.176 358.371 270.176C357.645 270.176 357.097 269.956 356.728 269.517C356.358 269.077 356.174 268.453 356.174 267.645V261.747H354.442V260.49H356.174V258.188H357.8ZM363.249 270H361.623V260.49H363.249V270ZM361.491 257.968C361.491 257.704 361.57 257.481 361.729 257.3C361.893 257.118 362.133 257.027 362.449 257.027C362.766 257.027 363.006 257.118 363.17 257.3C363.334 257.481 363.416 257.704 363.416 257.968C363.416 258.231 363.334 258.451 363.17 258.627C363.006 258.803 362.766 258.891 362.449 258.891C362.133 258.891 361.893 258.803 361.729 258.627C361.57 258.451 361.491 258.231 361.491 257.968ZM368.997 267.794L371.353 260.49H373.014L369.604 270H368.364L364.919 260.49H366.58L368.997 267.794ZM378.401 270.176C377.112 270.176 376.063 269.754 375.255 268.91C374.446 268.061 374.042 266.927 374.042 265.509V265.21C374.042 264.267 374.221 263.426 374.578 262.688C374.941 261.943 375.445 261.363 376.09 260.947C376.74 260.525 377.443 260.314 378.199 260.314C379.436 260.314 380.396 260.722 381.082 261.536C381.768 262.351 382.11 263.517 382.11 265.034V265.711H375.668C375.691 266.648 375.964 267.407 376.485 267.987C377.013 268.562 377.681 268.849 378.489 268.849C379.063 268.849 379.55 268.731 379.948 268.497C380.347 268.263 380.695 267.952 380.994 267.565L381.987 268.339C381.19 269.563 379.995 270.176 378.401 270.176ZM378.199 261.65C377.543 261.65 376.992 261.891 376.547 262.371C376.102 262.846 375.826 263.514 375.721 264.375H380.484V264.252C380.438 263.426 380.215 262.787 379.816 262.336C379.418 261.879 378.879 261.65 378.199 261.65ZM394.002 267.478C394.002 267.038 393.835 266.698 393.501 266.458C393.173 266.212 392.596 266.001 391.77 265.825C390.949 265.649 390.296 265.438 389.81 265.192C389.329 264.946 388.972 264.653 388.737 264.313C388.509 263.974 388.395 263.569 388.395 263.101C388.395 262.321 388.723 261.662 389.379 261.123C390.041 260.584 390.885 260.314 391.91 260.314C392.988 260.314 393.861 260.593 394.529 261.149C395.203 261.706 395.54 262.418 395.54 263.285H393.905C393.905 262.84 393.715 262.456 393.334 262.134C392.959 261.812 392.484 261.65 391.91 261.65C391.318 261.65 390.855 261.779 390.521 262.037C390.188 262.295 390.021 262.632 390.021 263.048C390.021 263.44 390.176 263.736 390.486 263.936C390.797 264.135 391.356 264.325 392.165 264.507C392.979 264.688 393.639 264.905 394.143 265.157C394.646 265.409 395.019 265.714 395.259 266.071C395.505 266.423 395.628 266.854 395.628 267.363C395.628 268.213 395.288 268.896 394.608 269.411C393.929 269.921 393.047 270.176 391.963 270.176C391.201 270.176 390.527 270.041 389.941 269.771C389.355 269.502 388.896 269.127 388.562 268.646C388.233 268.16 388.069 267.636 388.069 267.073H389.695C389.725 267.618 389.941 268.052 390.346 268.374C390.756 268.69 391.295 268.849 391.963 268.849C392.578 268.849 393.07 268.726 393.439 268.479C393.814 268.228 394.002 267.894 394.002 267.478ZM400.4 265.597L399.381 266.66V270H397.755V256.5H399.381V264.665L400.251 263.619L403.213 260.49H405.19L401.49 264.463L405.621 270H403.714L400.4 265.597ZM408.636 270H407.01V260.49H408.636V270ZM406.878 257.968C406.878 257.704 406.957 257.481 407.115 257.3C407.279 257.118 407.52 257.027 407.836 257.027C408.152 257.027 408.393 257.118 408.557 257.3C408.721 257.481 408.803 257.704 408.803 257.968C408.803 258.231 408.721 258.451 408.557 258.627C408.393 258.803 408.152 258.891 407.836 258.891C407.52 258.891 407.279 258.803 407.115 258.627C406.957 258.451 406.878 258.231 406.878 257.968ZM412.784 260.49L412.837 261.686C413.563 260.771 414.513 260.314 415.685 260.314C417.694 260.314 418.708 261.448 418.726 263.716V270H417.1V263.707C417.094 263.021 416.936 262.515 416.625 262.187C416.32 261.858 415.843 261.694 415.192 261.694C414.665 261.694 414.202 261.835 413.804 262.116C413.405 262.397 413.095 262.767 412.872 263.224V270H411.246V260.49H412.784ZM429.457 268.849C430.037 268.849 430.544 268.673 430.978 268.321C431.411 267.97 431.651 267.53 431.698 267.003H433.236C433.207 267.548 433.02 268.066 432.674 268.559C432.328 269.051 431.865 269.443 431.285 269.736C430.711 270.029 430.102 270.176 429.457 270.176C428.162 270.176 427.131 269.745 426.363 268.884C425.602 268.017 425.221 266.833 425.221 265.333V265.061C425.221 264.135 425.391 263.312 425.73 262.591C426.07 261.87 426.557 261.311 427.189 260.912C427.828 260.514 428.581 260.314 429.448 260.314C430.515 260.314 431.399 260.634 432.103 261.272C432.812 261.911 433.189 262.74 433.236 263.76H431.698C431.651 263.145 431.417 262.641 430.995 262.248C430.579 261.85 430.063 261.65 429.448 261.65C428.622 261.65 427.98 261.949 427.523 262.547C427.072 263.139 426.847 263.997 426.847 265.122V265.43C426.847 266.525 427.072 267.369 427.523 267.961C427.975 268.553 428.619 268.849 429.457 268.849ZM440.936 270C440.842 269.812 440.766 269.479 440.707 268.998C439.951 269.783 439.049 270.176 438 270.176C437.062 270.176 436.292 269.912 435.688 269.385C435.091 268.852 434.792 268.178 434.792 267.363C434.792 266.373 435.167 265.605 435.917 265.061C436.673 264.51 437.733 264.234 439.099 264.234H440.681V263.487C440.681 262.919 440.511 262.468 440.171 262.134C439.831 261.794 439.33 261.624 438.668 261.624C438.088 261.624 437.602 261.771 437.209 262.063C436.816 262.356 436.62 262.711 436.62 263.127H434.985C434.985 262.652 435.152 262.195 435.486 261.756C435.826 261.311 436.283 260.959 436.857 260.701C437.438 260.443 438.073 260.314 438.765 260.314C439.86 260.314 440.719 260.59 441.34 261.141C441.961 261.686 442.283 262.438 442.307 263.399V267.776C442.307 268.649 442.418 269.344 442.641 269.859V270H440.936ZM438.237 268.761C438.747 268.761 439.23 268.629 439.688 268.365C440.145 268.102 440.476 267.759 440.681 267.337V265.386H439.406C437.414 265.386 436.418 265.969 436.418 267.135C436.418 267.645 436.588 268.043 436.928 268.33C437.268 268.617 437.704 268.761 438.237 268.761ZM449.452 261.949C449.206 261.908 448.939 261.888 448.652 261.888C447.586 261.888 446.862 262.342 446.481 263.25V270H444.855V260.49H446.438L446.464 261.589C446.997 260.739 447.753 260.314 448.731 260.314C449.048 260.314 449.288 260.355 449.452 260.438V261.949ZM454.726 270.176C453.437 270.176 452.388 269.754 451.579 268.91C450.771 268.061 450.366 266.927 450.366 265.509V265.21C450.366 264.267 450.545 263.426 450.902 262.688C451.266 261.943 451.77 261.363 452.414 260.947C453.064 260.525 453.768 260.314 454.523 260.314C455.76 260.314 456.721 260.722 457.406 261.536C458.092 262.351 458.435 263.517 458.435 265.034V265.711H451.992C452.016 266.648 452.288 267.407 452.81 267.987C453.337 268.562 454.005 268.849 454.813 268.849C455.388 268.849 455.874 268.731 456.272 268.497C456.671 268.263 457.02 267.952 457.318 267.565L458.312 268.339C457.515 269.563 456.319 270.176 454.726 270.176ZM454.523 261.65C453.867 261.65 453.316 261.891 452.871 262.371C452.426 262.846 452.15 263.514 452.045 264.375H456.809V264.252C456.762 263.426 456.539 262.787 456.141 262.336C455.742 261.879 455.203 261.65 454.523 261.65ZM27.4365 290.188V292.49H29.2119V293.747H27.4365V299.645C27.4365 300.025 27.5156 300.312 27.6738 300.506C27.832 300.693 28.1016 300.787 28.4824 300.787C28.6699 300.787 28.9277 300.752 29.2559 300.682V302C28.8281 302.117 28.4121 302.176 28.0078 302.176C27.2812 302.176 26.7334 301.956 26.3643 301.517C25.9951 301.077 25.8105 300.453 25.8105 299.645V293.747H24.0791V292.49H25.8105V290.188H27.4365ZM35.7158 293.949C35.4697 293.908 35.2031 293.888 34.916 293.888C33.8496 293.888 33.126 294.342 32.7451 295.25V302H31.1191V292.49H32.7012L32.7275 293.589C33.2607 292.739 34.0166 292.314 34.9951 292.314C35.3115 292.314 35.5518 292.355 35.7158 292.438V293.949ZM40.9893 302.176C39.7002 302.176 38.6514 301.754 37.8428 300.91C37.0342 300.061 36.6299 298.927 36.6299 297.509V297.21C36.6299 296.267 36.8086 295.426 37.166 294.688C37.5293 293.943 38.0332 293.363 38.6777 292.947C39.3281 292.525 40.0312 292.314 40.7871 292.314C42.0234 292.314 42.9844 292.722 43.6699 293.536C44.3555 294.351 44.6982 295.517 44.6982 297.034V297.711H38.2559C38.2793 298.648 38.5518 299.407 39.0732 299.987C39.6006 300.562 40.2686 300.849 41.0771 300.849C41.6514 300.849 42.1377 300.731 42.5361 300.497C42.9346 300.263 43.2832 299.952 43.582 299.565L44.5752 300.339C43.7783 301.563 42.583 302.176 40.9893 302.176ZM40.7871 293.65C40.1309 293.65 39.5801 293.891 39.1348 294.371C38.6895 294.846 38.4141 295.514 38.3086 296.375H43.0723V296.252C43.0254 295.426 42.8027 294.787 42.4043 294.336C42.0059 293.879 41.4668 293.65 40.7871 293.65ZM52.459 302C52.3652 301.812 52.2891 301.479 52.2305 300.998C51.4746 301.783 50.5723 302.176 49.5234 302.176C48.5859 302.176 47.8154 301.912 47.2119 301.385C46.6143 300.852 46.3154 300.178 46.3154 299.363C46.3154 298.373 46.6904 297.605 47.4404 297.061C48.1963 296.51 49.2568 296.234 50.6221 296.234H52.2041V295.487C52.2041 294.919 52.0342 294.468 51.6943 294.134C51.3545 293.794 50.8535 293.624 50.1914 293.624C49.6113 293.624 49.125 293.771 48.7324 294.063C48.3398 294.356 48.1436 294.711 48.1436 295.127H46.5088C46.5088 294.652 46.6758 294.195 47.0098 293.756C47.3496 293.311 47.8066 292.959 48.3809 292.701C48.9609 292.443 49.5967 292.314 50.2881 292.314C51.3838 292.314 52.2422 292.59 52.8633 293.141C53.4844 293.686 53.8066 294.438 53.8301 295.399V299.776C53.8301 300.649 53.9414 301.344 54.1641 301.859V302H52.459ZM49.7607 300.761C50.2705 300.761 50.7539 300.629 51.2109 300.365C51.668 300.102 51.999 299.759 52.2041 299.337V297.386H50.9297C48.9375 297.386 47.9414 297.969 47.9414 299.135C47.9414 299.645 48.1113 300.043 48.4512 300.33C48.791 300.617 49.2275 300.761 49.7607 300.761ZM58.585 290.188V292.49H60.3604V293.747H58.585V299.645C58.585 300.025 58.6641 300.312 58.8223 300.506C58.9805 300.693 59.25 300.787 59.6309 300.787C59.8184 300.787 60.0762 300.752 60.4043 300.682V302C59.9766 302.117 59.5605 302.176 59.1562 302.176C58.4297 302.176 57.8818 301.956 57.5127 301.517C57.1436 301.077 56.959 300.453 56.959 299.645V293.747H55.2275V292.49H56.959V290.188H58.585ZM63.7969 292.49L63.8408 293.545C64.5381 292.725 65.4785 292.314 66.6621 292.314C67.9922 292.314 68.8975 292.824 69.3779 293.844C69.6943 293.387 70.1045 293.018 70.6084 292.736C71.1182 292.455 71.7188 292.314 72.4102 292.314C74.4961 292.314 75.5566 293.419 75.5918 295.628V302H73.9658V295.725C73.9658 295.045 73.8105 294.538 73.5 294.204C73.1895 293.864 72.668 293.694 71.9355 293.694C71.332 293.694 70.8311 293.876 70.4326 294.239C70.0342 294.597 69.8027 295.08 69.7383 295.689V302H68.1035V295.769C68.1035 294.386 67.4268 293.694 66.0732 293.694C65.0068 293.694 64.2773 294.148 63.8848 295.057V302H62.2588V292.49H63.7969ZM81.999 302.176C80.71 302.176 79.6611 301.754 78.8525 300.91C78.0439 300.061 77.6396 298.927 77.6396 297.509V297.21C77.6396 296.267 77.8184 295.426 78.1758 294.688C78.5391 293.943 79.043 293.363 79.6875 292.947C80.3379 292.525 81.041 292.314 81.7969 292.314C83.0332 292.314 83.9941 292.722 84.6797 293.536C85.3652 294.351 85.708 295.517 85.708 297.034V297.711H79.2656C79.2891 298.648 79.5615 299.407 80.083 299.987C80.6104 300.562 81.2783 300.849 82.0869 300.849C82.6611 300.849 83.1475 300.731 83.5459 300.497C83.9443 300.263 84.293 299.952 84.5918 299.565L85.585 300.339C84.7881 301.563 83.5928 302.176 81.999 302.176ZM81.7969 293.65C81.1406 293.65 80.5898 293.891 80.1445 294.371C79.6992 294.846 79.4238 295.514 79.3184 296.375H84.082V296.252C84.0352 295.426 83.8125 294.787 83.4141 294.336C83.0156 293.879 82.4766 293.65 81.7969 293.65ZM89.1357 292.49L89.1885 293.686C89.915 292.771 90.8643 292.314 92.0361 292.314C94.0459 292.314 95.0596 293.448 95.0771 295.716V302H93.4512V295.707C93.4453 295.021 93.2871 294.515 92.9766 294.187C92.6719 293.858 92.1943 293.694 91.5439 293.694C91.0166 293.694 90.5537 293.835 90.1553 294.116C89.7568 294.397 89.4463 294.767 89.2236 295.224V302H87.5977V292.49H89.1357ZM99.7354 290.188V292.49H101.511V293.747H99.7354V299.645C99.7354 300.025 99.8145 300.312 99.9727 300.506C100.131 300.693 100.4 300.787 100.781 300.787C100.969 300.787 101.227 300.752 101.555 300.682V302C101.127 302.117 100.711 302.176 100.307 302.176C99.5801 302.176 99.0322 301.956 98.6631 301.517C98.2939 301.077 98.1094 300.453 98.1094 299.645V293.747H96.3779V292.49H98.1094V290.188H99.7354ZM108.955 299.478C108.955 299.038 108.788 298.698 108.454 298.458C108.126 298.212 107.549 298.001 106.723 297.825C105.902 297.649 105.249 297.438 104.763 297.192C104.282 296.946 103.925 296.653 103.69 296.313C103.462 295.974 103.348 295.569 103.348 295.101C103.348 294.321 103.676 293.662 104.332 293.123C104.994 292.584 105.838 292.314 106.863 292.314C107.941 292.314 108.814 292.593 109.482 293.149C110.156 293.706 110.493 294.418 110.493 295.285H108.858C108.858 294.84 108.668 294.456 108.287 294.134C107.912 293.812 107.438 293.65 106.863 293.65C106.271 293.65 105.809 293.779 105.475 294.037C105.141 294.295 104.974 294.632 104.974 295.048C104.974 295.44 105.129 295.736 105.439 295.936C105.75 296.135 106.31 296.325 107.118 296.507C107.933 296.688 108.592 296.905 109.096 297.157C109.6 297.409 109.972 297.714 110.212 298.071C110.458 298.423 110.581 298.854 110.581 299.363C110.581 300.213 110.241 300.896 109.562 301.411C108.882 301.921 108 302.176 106.916 302.176C106.154 302.176 105.48 302.041 104.895 301.771C104.309 301.502 103.849 301.127 103.515 300.646C103.187 300.16 103.022 299.636 103.022 299.073H104.648C104.678 299.618 104.895 300.052 105.299 300.374C105.709 300.69 106.248 300.849 106.916 300.849C107.531 300.849 108.023 300.726 108.393 300.479C108.768 300.228 108.955 299.894 108.955 299.478ZM125.215 297.351C125.215 298.804 124.881 299.973 124.213 300.857C123.545 301.736 122.648 302.176 121.523 302.176C120.322 302.176 119.394 301.751 118.737 300.901L118.658 302H117.164V288.5H118.79V293.536C119.446 292.722 120.352 292.314 121.506 292.314C122.66 292.314 123.565 292.751 124.222 293.624C124.884 294.497 125.215 295.692 125.215 297.21V297.351ZM123.589 297.166C123.589 296.059 123.375 295.203 122.947 294.6C122.52 293.996 121.904 293.694 121.102 293.694C120.029 293.694 119.259 294.192 118.79 295.188V299.302C119.288 300.298 120.064 300.796 121.119 300.796C121.898 300.796 122.505 300.494 122.938 299.891C123.372 299.287 123.589 298.379 123.589 297.166ZM130.277 299.618L132.492 292.49H134.232L130.409 303.468C129.817 305.05 128.877 305.841 127.588 305.841L127.28 305.814L126.674 305.7V304.382L127.113 304.417C127.664 304.417 128.092 304.306 128.396 304.083C128.707 303.86 128.962 303.453 129.161 302.861L129.521 301.895L126.129 292.49H127.904L130.277 299.618ZM141.923 302H140.297V288.5H141.923V302ZM148.479 302.176C147.19 302.176 146.142 301.754 145.333 300.91C144.524 300.061 144.12 298.927 144.12 297.509V297.21C144.12 296.267 144.299 295.426 144.656 294.688C145.02 293.943 145.523 293.363 146.168 292.947C146.818 292.525 147.521 292.314 148.277 292.314C149.514 292.314 150.475 292.722 151.16 293.536C151.846 294.351 152.188 295.517 152.188 297.034V297.711H145.746C145.77 298.648 146.042 299.407 146.563 299.987C147.091 300.562 147.759 300.849 148.567 300.849C149.142 300.849 149.628 300.731 150.026 300.497C150.425 300.263 150.773 299.952 151.072 299.565L152.065 300.339C151.269 301.563 150.073 302.176 148.479 302.176ZM148.277 293.65C147.621 293.65 147.07 293.891 146.625 294.371C146.18 294.846 145.904 295.514 145.799 296.375H150.562V296.252C150.516 295.426 150.293 294.787 149.895 294.336C149.496 293.879 148.957 293.65 148.277 293.65ZM156.284 290.188V292.49H158.06V293.747H156.284V299.645C156.284 300.025 156.363 300.312 156.521 300.506C156.68 300.693 156.949 300.787 157.33 300.787C157.518 300.787 157.775 300.752 158.104 300.682V302C157.676 302.117 157.26 302.176 156.855 302.176C156.129 302.176 155.581 301.956 155.212 301.517C154.843 301.077 154.658 300.453 154.658 299.645V293.747H152.927V292.49H154.658V290.188H156.284ZM162.173 290.188V292.49H163.948V293.747H162.173V299.645C162.173 300.025 162.252 300.312 162.41 300.506C162.568 300.693 162.838 300.787 163.219 300.787C163.406 300.787 163.664 300.752 163.992 300.682V302C163.564 302.117 163.148 302.176 162.744 302.176C162.018 302.176 161.47 301.956 161.101 301.517C160.731 301.077 160.547 300.453 160.547 299.645V293.747H158.815V292.49H160.547V290.188H162.173ZM167.622 302H165.996V292.49H167.622V302ZM165.864 289.968C165.864 289.704 165.943 289.481 166.102 289.3C166.266 289.118 166.506 289.027 166.822 289.027C167.139 289.027 167.379 289.118 167.543 289.3C167.707 289.481 167.789 289.704 167.789 289.968C167.789 290.231 167.707 290.451 167.543 290.627C167.379 290.803 167.139 290.891 166.822 290.891C166.506 290.891 166.266 290.803 166.102 290.627C165.943 290.451 165.864 290.231 165.864 289.968ZM171.771 292.49L171.823 293.686C172.55 292.771 173.499 292.314 174.671 292.314C176.681 292.314 177.694 293.448 177.712 295.716V302H176.086V295.707C176.08 295.021 175.922 294.515 175.611 294.187C175.307 293.858 174.829 293.694 174.179 293.694C173.651 293.694 173.188 293.835 172.79 294.116C172.392 294.397 172.081 294.767 171.858 295.224V302H170.232V292.49H171.771ZM179.777 297.166C179.777 295.684 180.12 294.506 180.806 293.633C181.491 292.754 182.399 292.314 183.53 292.314C184.69 292.314 185.596 292.725 186.246 293.545L186.325 292.49H187.811V301.771C187.811 303.002 187.444 303.972 186.712 304.681C185.985 305.39 185.007 305.744 183.776 305.744C183.091 305.744 182.42 305.598 181.764 305.305C181.107 305.012 180.606 304.61 180.261 304.101L181.104 303.125C181.802 303.986 182.654 304.417 183.662 304.417C184.453 304.417 185.068 304.194 185.508 303.749C185.953 303.304 186.176 302.677 186.176 301.868V301.051C185.525 301.801 184.638 302.176 183.513 302.176C182.399 302.176 181.497 301.728 180.806 300.831C180.12 299.935 179.777 298.713 179.777 297.166ZM181.412 297.351C181.412 298.423 181.632 299.267 182.071 299.882C182.511 300.491 183.126 300.796 183.917 300.796C184.942 300.796 185.695 300.33 186.176 299.398V295.057C185.678 294.148 184.931 293.694 183.935 293.694C183.144 293.694 182.525 294.002 182.08 294.617C181.635 295.232 181.412 296.144 181.412 297.351ZM197.848 299.618L200.062 292.49H201.803L197.979 303.468C197.388 305.05 196.447 305.841 195.158 305.841L194.851 305.814L194.244 305.7V304.382L194.684 304.417C195.234 304.417 195.662 304.306 195.967 304.083C196.277 303.86 196.532 303.453 196.731 302.861L197.092 301.895L193.699 292.49H195.475L197.848 299.618ZM202.69 297.157C202.69 296.226 202.872 295.388 203.235 294.644C203.604 293.899 204.114 293.325 204.765 292.921C205.421 292.517 206.168 292.314 207.006 292.314C208.301 292.314 209.347 292.763 210.144 293.659C210.946 294.556 211.348 295.748 211.348 297.236V297.351C211.348 298.276 211.169 299.108 210.812 299.847C210.46 300.579 209.953 301.15 209.291 301.561C208.635 301.971 207.879 302.176 207.023 302.176C205.734 302.176 204.688 301.728 203.886 300.831C203.089 299.935 202.69 298.748 202.69 297.271V297.157ZM204.325 297.351C204.325 298.405 204.568 299.252 205.055 299.891C205.547 300.529 206.203 300.849 207.023 300.849C207.85 300.849 208.506 300.526 208.992 299.882C209.479 299.231 209.722 298.323 209.722 297.157C209.722 296.114 209.473 295.271 208.975 294.626C208.482 293.976 207.826 293.65 207.006 293.65C206.203 293.65 205.556 293.97 205.063 294.608C204.571 295.247 204.325 296.161 204.325 297.351ZM219.258 301.06C218.625 301.804 217.696 302.176 216.472 302.176C215.458 302.176 214.685 301.883 214.151 301.297C213.624 300.705 213.357 299.832 213.352 298.678V292.49H214.978V298.634C214.978 300.075 215.563 300.796 216.735 300.796C217.978 300.796 218.804 300.333 219.214 299.407V292.49H220.84V302H219.293L219.258 301.06ZM229.989 290.188V292.49H231.765V293.747H229.989V299.645C229.989 300.025 230.068 300.312 230.227 300.506C230.385 300.693 230.654 300.787 231.035 300.787C231.223 300.787 231.48 300.752 231.809 300.682V302C231.381 302.117 230.965 302.176 230.561 302.176C229.834 302.176 229.286 301.956 228.917 301.517C228.548 301.077 228.363 300.453 228.363 299.645V293.747H226.632V292.49H228.363V290.188H229.989ZM237.618 302.176C236.329 302.176 235.28 301.754 234.472 300.91C233.663 300.061 233.259 298.927 233.259 297.509V297.21C233.259 296.267 233.438 295.426 233.795 294.688C234.158 293.943 234.662 293.363 235.307 292.947C235.957 292.525 236.66 292.314 237.416 292.314C238.652 292.314 239.613 292.722 240.299 293.536C240.984 294.351 241.327 295.517 241.327 297.034V297.711H234.885C234.908 298.648 235.181 299.407 235.702 299.987C236.229 300.562 236.897 300.849 237.706 300.849C238.28 300.849 238.767 300.731 239.165 300.497C239.563 300.263 239.912 299.952 240.211 299.565L241.204 300.339C240.407 301.563 239.212 302.176 237.618 302.176ZM237.416 293.65C236.76 293.65 236.209 293.891 235.764 294.371C235.318 294.846 235.043 295.514 234.938 296.375H239.701V296.252C239.654 295.426 239.432 294.787 239.033 294.336C238.635 293.879 238.096 293.65 237.416 293.65ZM248.754 299.478C248.754 299.038 248.587 298.698 248.253 298.458C247.925 298.212 247.348 298.001 246.521 297.825C245.701 297.649 245.048 297.438 244.562 297.192C244.081 296.946 243.724 296.653 243.489 296.313C243.261 295.974 243.146 295.569 243.146 295.101C243.146 294.321 243.475 293.662 244.131 293.123C244.793 292.584 245.637 292.314 246.662 292.314C247.74 292.314 248.613 292.593 249.281 293.149C249.955 293.706 250.292 294.418 250.292 295.285H248.657C248.657 294.84 248.467 294.456 248.086 294.134C247.711 293.812 247.236 293.65 246.662 293.65C246.07 293.65 245.607 293.779 245.273 294.037C244.939 294.295 244.772 294.632 244.772 295.048C244.772 295.44 244.928 295.736 245.238 295.936C245.549 296.135 246.108 296.325 246.917 296.507C247.731 296.688 248.391 296.905 248.895 297.157C249.398 297.409 249.771 297.714 250.011 298.071C250.257 298.423 250.38 298.854 250.38 299.363C250.38 300.213 250.04 300.896 249.36 301.411C248.681 301.921 247.799 302.176 246.715 302.176C245.953 302.176 245.279 302.041 244.693 301.771C244.107 301.502 243.647 301.127 243.313 300.646C242.985 300.16 242.821 299.636 242.821 299.073H244.447C244.477 299.618 244.693 300.052 245.098 300.374C245.508 300.69 246.047 300.849 246.715 300.849C247.33 300.849 247.822 300.726 248.191 300.479C248.566 300.228 248.754 299.894 248.754 299.478ZM254.704 290.188V292.49H256.479V293.747H254.704V299.645C254.704 300.025 254.783 300.312 254.941 300.506C255.1 300.693 255.369 300.787 255.75 300.787C255.938 300.787 256.195 300.752 256.523 300.682V302C256.096 302.117 255.68 302.176 255.275 302.176C254.549 302.176 254.001 301.956 253.632 301.517C253.263 301.077 253.078 300.453 253.078 299.645V293.747H251.347V292.49H253.078V290.188H254.704ZM268.723 302C268.629 301.812 268.553 301.479 268.494 300.998C267.738 301.783 266.836 302.176 265.787 302.176C264.85 302.176 264.079 301.912 263.476 301.385C262.878 300.852 262.579 300.178 262.579 299.363C262.579 298.373 262.954 297.605 263.704 297.061C264.46 296.51 265.521 296.234 266.886 296.234H268.468V295.487C268.468 294.919 268.298 294.468 267.958 294.134C267.618 293.794 267.117 293.624 266.455 293.624C265.875 293.624 265.389 293.771 264.996 294.063C264.604 294.356 264.407 294.711 264.407 295.127H262.772C262.772 294.652 262.939 294.195 263.273 293.756C263.613 293.311 264.07 292.959 264.645 292.701C265.225 292.443 265.86 292.314 266.552 292.314C267.647 292.314 268.506 292.59 269.127 293.141C269.748 293.686 270.07 294.438 270.094 295.399V299.776C270.094 300.649 270.205 301.344 270.428 301.859V302H268.723ZM266.024 300.761C266.534 300.761 267.018 300.629 267.475 300.365C267.932 300.102 268.263 299.759 268.468 299.337V297.386H267.193C265.201 297.386 264.205 297.969 264.205 299.135C264.205 299.645 264.375 300.043 264.715 300.33C265.055 300.617 265.491 300.761 266.024 300.761ZM274.181 292.49L274.233 293.686C274.96 292.771 275.909 292.314 277.081 292.314C279.091 292.314 280.104 293.448 280.122 295.716V302H278.496V295.707C278.49 295.021 278.332 294.515 278.021 294.187C277.717 293.858 277.239 293.694 276.589 293.694C276.062 293.694 275.599 293.835 275.2 294.116C274.802 294.397 274.491 294.767 274.269 295.224V302H272.643V292.49H274.181ZM282.179 297.166C282.179 295.707 282.524 294.535 283.216 293.65C283.907 292.76 284.812 292.314 285.932 292.314C287.045 292.314 287.927 292.695 288.577 293.457V288.5H290.203V302H288.709L288.63 300.98C287.979 301.777 287.074 302.176 285.914 302.176C284.812 302.176 283.913 301.725 283.216 300.822C282.524 299.92 282.179 298.742 282.179 297.289V297.166ZM283.805 297.351C283.805 298.429 284.027 299.272 284.473 299.882C284.918 300.491 285.533 300.796 286.318 300.796C287.35 300.796 288.103 300.333 288.577 299.407V295.039C288.091 294.143 287.344 293.694 286.336 293.694C285.539 293.694 284.918 294.002 284.473 294.617C284.027 295.232 283.805 296.144 283.805 297.351ZM299.405 290.188V292.49H301.181V293.747H299.405V299.645C299.405 300.025 299.484 300.312 299.643 300.506C299.801 300.693 300.07 300.787 300.451 300.787C300.639 300.787 300.896 300.752 301.225 300.682V302C300.797 302.117 300.381 302.176 299.977 302.176C299.25 302.176 298.702 301.956 298.333 301.517C297.964 301.077 297.779 300.453 297.779 299.645V293.747H296.048V292.49H297.779V290.188H299.405ZM307.685 293.949C307.438 293.908 307.172 293.888 306.885 293.888C305.818 293.888 305.095 294.342 304.714 295.25V302H303.088V292.49H304.67L304.696 293.589C305.229 292.739 305.985 292.314 306.964 292.314C307.28 292.314 307.521 292.355 307.685 292.438V293.949ZM314.707 302C314.613 301.812 314.537 301.479 314.479 300.998C313.723 301.783 312.82 302.176 311.771 302.176C310.834 302.176 310.063 301.912 309.46 301.385C308.862 300.852 308.563 300.178 308.563 299.363C308.563 298.373 308.938 297.605 309.688 297.061C310.444 296.51 311.505 296.234 312.87 296.234H314.452V295.487C314.452 294.919 314.282 294.468 313.942 294.134C313.603 293.794 313.102 293.624 312.439 293.624C311.859 293.624 311.373 293.771 310.98 294.063C310.588 294.356 310.392 294.711 310.392 295.127H308.757C308.757 294.652 308.924 294.195 309.258 293.756C309.598 293.311 310.055 292.959 310.629 292.701C311.209 292.443 311.845 292.314 312.536 292.314C313.632 292.314 314.49 292.59 315.111 293.141C315.732 293.686 316.055 294.438 316.078 295.399V299.776C316.078 300.649 316.189 301.344 316.412 301.859V302H314.707ZM312.009 300.761C312.519 300.761 313.002 300.629 313.459 300.365C313.916 300.102 314.247 299.759 314.452 299.337V297.386H313.178C311.186 297.386 310.189 297.969 310.189 299.135C310.189 299.645 310.359 300.043 310.699 300.33C311.039 300.617 311.476 300.761 312.009 300.761ZM322.441 300.849C323.021 300.849 323.528 300.673 323.962 300.321C324.396 299.97 324.636 299.53 324.683 299.003H326.221C326.191 299.548 326.004 300.066 325.658 300.559C325.312 301.051 324.85 301.443 324.27 301.736C323.695 302.029 323.086 302.176 322.441 302.176C321.146 302.176 320.115 301.745 319.348 300.884C318.586 300.017 318.205 298.833 318.205 297.333V297.061C318.205 296.135 318.375 295.312 318.715 294.591C319.055 293.87 319.541 293.311 320.174 292.912C320.812 292.514 321.565 292.314 322.433 292.314C323.499 292.314 324.384 292.634 325.087 293.272C325.796 293.911 326.174 294.74 326.221 295.76H324.683C324.636 295.145 324.401 294.641 323.979 294.248C323.563 293.85 323.048 293.65 322.433 293.65C321.606 293.65 320.965 293.949 320.508 294.547C320.057 295.139 319.831 295.997 319.831 297.122V297.43C319.831 298.525 320.057 299.369 320.508 299.961C320.959 300.553 321.604 300.849 322.441 300.849ZM330.703 297.597L329.684 298.66V302H328.058V288.5H329.684V296.665L330.554 295.619L333.516 292.49H335.493L331.793 296.463L335.924 302H334.017L330.703 297.597ZM349.67 297.351C349.67 298.798 349.339 299.964 348.677 300.849C348.015 301.733 347.118 302.176 345.987 302.176C344.833 302.176 343.925 301.81 343.263 301.077V305.656H341.637V292.49H343.122L343.201 293.545C343.863 292.725 344.783 292.314 345.961 292.314C347.104 292.314 348.006 292.745 348.668 293.606C349.336 294.468 349.67 295.666 349.67 297.201V297.351ZM348.044 297.166C348.044 296.094 347.815 295.247 347.358 294.626C346.901 294.005 346.274 293.694 345.478 293.694C344.493 293.694 343.755 294.131 343.263 295.004V299.548C343.749 300.415 344.493 300.849 345.495 300.849C346.274 300.849 346.893 300.541 347.35 299.926C347.812 299.305 348.044 298.385 348.044 297.166ZM356.341 293.949C356.095 293.908 355.828 293.888 355.541 293.888C354.475 293.888 353.751 294.342 353.37 295.25V302H351.744V292.49H353.326L353.353 293.589C353.886 292.739 354.642 292.314 355.62 292.314C355.937 292.314 356.177 292.355 356.341 292.438V293.949ZM357.237 297.157C357.237 296.226 357.419 295.388 357.782 294.644C358.151 293.899 358.661 293.325 359.312 292.921C359.968 292.517 360.715 292.314 361.553 292.314C362.848 292.314 363.894 292.763 364.69 293.659C365.493 294.556 365.895 295.748 365.895 297.236V297.351C365.895 298.276 365.716 299.108 365.358 299.847C365.007 300.579 364.5 301.15 363.838 301.561C363.182 301.971 362.426 302.176 361.57 302.176C360.281 302.176 359.235 301.728 358.433 300.831C357.636 299.935 357.237 298.748 357.237 297.271V297.157ZM358.872 297.351C358.872 298.405 359.115 299.252 359.602 299.891C360.094 300.529 360.75 300.849 361.57 300.849C362.396 300.849 363.053 300.526 363.539 299.882C364.025 299.231 364.269 298.323 364.269 297.157C364.269 296.114 364.02 295.271 363.521 294.626C363.029 293.976 362.373 293.65 361.553 293.65C360.75 293.65 360.103 293.97 359.61 294.608C359.118 295.247 358.872 296.161 358.872 297.351ZM367.538 297.166C367.538 295.707 367.884 294.535 368.575 293.65C369.267 292.76 370.172 292.314 371.291 292.314C372.404 292.314 373.286 292.695 373.937 293.457V288.5H375.562V302H374.068L373.989 300.98C373.339 301.777 372.434 302.176 371.273 302.176C370.172 302.176 369.272 301.725 368.575 300.822C367.884 299.92 367.538 298.742 367.538 297.289V297.166ZM369.164 297.351C369.164 298.429 369.387 299.272 369.832 299.882C370.277 300.491 370.893 300.796 371.678 300.796C372.709 300.796 373.462 300.333 373.937 299.407V295.039C373.45 294.143 372.703 293.694 371.695 293.694C370.898 293.694 370.277 294.002 369.832 294.617C369.387 295.232 369.164 296.144 369.164 297.351ZM383.965 301.06C383.332 301.804 382.403 302.176 381.179 302.176C380.165 302.176 379.392 301.883 378.858 301.297C378.331 300.705 378.064 299.832 378.059 298.678V292.49H379.685V298.634C379.685 300.075 380.271 300.796 381.442 300.796C382.685 300.796 383.511 300.333 383.921 299.407V292.49H385.547V302H384L383.965 301.06ZM391.84 300.849C392.42 300.849 392.927 300.673 393.36 300.321C393.794 299.97 394.034 299.53 394.081 299.003H395.619C395.59 299.548 395.402 300.066 395.057 300.559C394.711 301.051 394.248 301.443 393.668 301.736C393.094 302.029 392.484 302.176 391.84 302.176C390.545 302.176 389.514 301.745 388.746 300.884C387.984 300.017 387.604 298.833 387.604 297.333V297.061C387.604 296.135 387.773 295.312 388.113 294.591C388.453 293.87 388.939 293.311 389.572 292.912C390.211 292.514 390.964 292.314 391.831 292.314C392.897 292.314 393.782 292.634 394.485 293.272C395.194 293.911 395.572 294.74 395.619 295.76H394.081C394.034 295.145 393.8 294.641 393.378 294.248C392.962 293.85 392.446 293.65 391.831 293.65C391.005 293.65 390.363 293.949 389.906 294.547C389.455 295.139 389.229 295.997 389.229 297.122V297.43C389.229 298.525 389.455 299.369 389.906 299.961C390.357 300.553 391.002 300.849 391.84 300.849ZM399.653 290.188V292.49H401.429V293.747H399.653V299.645C399.653 300.025 399.732 300.312 399.891 300.506C400.049 300.693 400.318 300.787 400.699 300.787C400.887 300.787 401.145 300.752 401.473 300.682V302C401.045 302.117 400.629 302.176 400.225 302.176C399.498 302.176 398.95 301.956 398.581 301.517C398.212 301.077 398.027 300.453 398.027 299.645V293.747H396.296V292.49H398.027V290.188H399.653ZM408.873 299.478C408.873 299.038 408.706 298.698 408.372 298.458C408.044 298.212 407.467 298.001 406.641 297.825C405.82 297.649 405.167 297.438 404.681 297.192C404.2 296.946 403.843 296.653 403.608 296.313C403.38 295.974 403.266 295.569 403.266 295.101C403.266 294.321 403.594 293.662 404.25 293.123C404.912 292.584 405.756 292.314 406.781 292.314C407.859 292.314 408.732 292.593 409.4 293.149C410.074 293.706 410.411 294.418 410.411 295.285H408.776C408.776 294.84 408.586 294.456 408.205 294.134C407.83 293.812 407.355 293.65 406.781 293.65C406.189 293.65 405.727 293.779 405.393 294.037C405.059 294.295 404.892 294.632 404.892 295.048C404.892 295.44 405.047 295.736 405.357 295.936C405.668 296.135 406.228 296.325 407.036 296.507C407.851 296.688 408.51 296.905 409.014 297.157C409.518 297.409 409.89 297.714 410.13 298.071C410.376 298.423 410.499 298.854 410.499 299.363C410.499 300.213 410.159 300.896 409.479 301.411C408.8 301.921 407.918 302.176 406.834 302.176C406.072 302.176 405.398 302.041 404.812 301.771C404.227 301.502 403.767 301.127 403.433 300.646C403.104 300.16 402.94 299.636 402.94 299.073H404.566C404.596 299.618 404.812 300.052 405.217 300.374C405.627 300.69 406.166 300.849 406.834 300.849C407.449 300.849 407.941 300.726 408.311 300.479C408.686 300.228 408.873 299.894 408.873 299.478ZM425.502 299.759L427.33 292.49H428.956L426.188 302H424.869L422.558 294.793L420.308 302H418.989L416.229 292.49H417.847L419.719 299.609L421.934 292.49H423.243L425.502 299.759ZM432.384 302H430.758V292.49H432.384V302ZM430.626 289.968C430.626 289.704 430.705 289.481 430.863 289.3C431.027 289.118 431.268 289.027 431.584 289.027C431.9 289.027 432.141 289.118 432.305 289.3C432.469 289.481 432.551 289.704 432.551 289.968C432.551 290.231 432.469 290.451 432.305 290.627C432.141 290.803 431.9 290.891 431.584 290.891C431.268 290.891 431.027 290.803 430.863 290.627C430.705 290.451 430.626 290.231 430.626 289.968ZM437.2 290.188V292.49H438.976V293.747H437.2V299.645C437.2 300.025 437.279 300.312 437.438 300.506C437.596 300.693 437.865 300.787 438.246 300.787C438.434 300.787 438.691 300.752 439.02 300.682V302C438.592 302.117 438.176 302.176 437.771 302.176C437.045 302.176 436.497 301.956 436.128 301.517C435.759 301.077 435.574 300.453 435.574 299.645V293.747H433.843V292.49H435.574V290.188H437.2ZM442.509 293.642C443.229 292.757 444.167 292.314 445.321 292.314C447.331 292.314 448.345 293.448 448.362 295.716V302H446.736V295.707C446.73 295.021 446.572 294.515 446.262 294.187C445.957 293.858 445.479 293.694 444.829 293.694C444.302 293.694 443.839 293.835 443.44 294.116C443.042 294.397 442.731 294.767 442.509 295.224V302H440.883V288.5H442.509V293.642ZM24.7998 329.157C24.7998 328.226 24.9814 327.388 25.3447 326.644C25.7139 325.899 26.2236 325.325 26.874 324.921C27.5303 324.517 28.2773 324.314 29.1152 324.314C30.4102 324.314 31.4561 324.763 32.2529 325.659C33.0557 326.556 33.457 327.748 33.457 329.236V329.351C33.457 330.276 33.2783 331.108 32.9209 331.847C32.5693 332.579 32.0625 333.15 31.4004 333.561C30.7441 333.971 29.9883 334.176 29.1328 334.176C27.8438 334.176 26.7979 333.728 25.9951 332.831C25.1982 331.935 24.7998 330.748 24.7998 329.271V329.157ZM26.4346 329.351C26.4346 330.405 26.6777 331.252 27.1641 331.891C27.6562 332.529 28.3125 332.849 29.1328 332.849C29.959 332.849 30.6152 332.526 31.1016 331.882C31.5879 331.231 31.8311 330.323 31.8311 329.157C31.8311 328.114 31.582 327.271 31.084 326.626C30.5918 325.976 29.9355 325.65 29.1152 325.65C28.3125 325.65 27.665 325.97 27.1729 326.608C26.6807 327.247 26.4346 328.161 26.4346 329.351ZM37.7021 322.188V324.49H39.4775V325.747H37.7021V331.645C37.7021 332.025 37.7812 332.312 37.9395 332.506C38.0977 332.693 38.3672 332.787 38.748 332.787C38.9355 332.787 39.1934 332.752 39.5215 332.682V334C39.0938 334.117 38.6777 334.176 38.2734 334.176C37.5469 334.176 36.999 333.956 36.6299 333.517C36.2607 333.077 36.0762 332.453 36.0762 331.645V325.747H34.3447V324.49H36.0762V322.188H37.7021ZM43.0107 325.642C43.7314 324.757 44.6689 324.314 45.8232 324.314C47.833 324.314 48.8467 325.448 48.8643 327.716V334H47.2383V327.707C47.2324 327.021 47.0742 326.515 46.7637 326.187C46.459 325.858 45.9814 325.694 45.3311 325.694C44.8037 325.694 44.3408 325.835 43.9424 326.116C43.5439 326.397 43.2334 326.767 43.0107 327.224V334H41.3848V320.5H43.0107V325.642ZM55.2451 334.176C53.9561 334.176 52.9072 333.754 52.0986 332.91C51.29 332.061 50.8857 330.927 50.8857 329.509V329.21C50.8857 328.267 51.0645 327.426 51.4219 326.688C51.7852 325.943 52.2891 325.363 52.9336 324.947C53.584 324.525 54.2871 324.314 55.043 324.314C56.2793 324.314 57.2402 324.722 57.9258 325.536C58.6113 326.351 58.9541 327.517 58.9541 329.034V329.711H52.5117C52.5352 330.648 52.8076 331.407 53.3291 331.987C53.8564 332.562 54.5244 332.849 55.333 332.849C55.9072 332.849 56.3936 332.731 56.792 332.497C57.1904 332.263 57.5391 331.952 57.8379 331.565L58.8311 332.339C58.0342 333.563 56.8389 334.176 55.2451 334.176ZM55.043 325.65C54.3867 325.65 53.8359 325.891 53.3906 326.371C52.9453 326.846 52.6699 327.514 52.5645 328.375H57.3281V328.252C57.2812 327.426 57.0586 326.787 56.6602 326.336C56.2617 325.879 55.7227 325.65 55.043 325.65ZM65.4404 325.949C65.1943 325.908 64.9277 325.888 64.6406 325.888C63.5742 325.888 62.8506 326.342 62.4697 327.25V334H60.8438V324.49H62.4258L62.4521 325.589C62.9854 324.739 63.7412 324.314 64.7197 324.314C65.0361 324.314 65.2764 324.355 65.4404 324.438V325.949ZM72.4805 331.478C72.4805 331.038 72.3135 330.698 71.9795 330.458C71.6514 330.212 71.0742 330.001 70.248 329.825C69.4277 329.649 68.7744 329.438 68.2881 329.192C67.8076 328.946 67.4502 328.653 67.2158 328.313C66.9873 327.974 66.873 327.569 66.873 327.101C66.873 326.321 67.2012 325.662 67.8574 325.123C68.5195 324.584 69.3633 324.314 70.3887 324.314C71.4668 324.314 72.3398 324.593 73.0078 325.149C73.6816 325.706 74.0186 326.418 74.0186 327.285H72.3838C72.3838 326.84 72.1934 326.456 71.8125 326.134C71.4375 325.812 70.9629 325.65 70.3887 325.65C69.7969 325.65 69.334 325.779 69 326.037C68.666 326.295 68.499 326.632 68.499 327.048C68.499 327.44 68.6543 327.736 68.9648 327.936C69.2754 328.135 69.835 328.325 70.6436 328.507C71.458 328.688 72.1172 328.905 72.6211 329.157C73.125 329.409 73.4971 329.714 73.7373 330.071C73.9834 330.423 74.1064 330.854 74.1064 331.363C74.1064 332.213 73.7666 332.896 73.0869 333.411C72.4072 333.921 71.5254 334.176 70.4414 334.176C69.6797 334.176 69.0059 334.041 68.4199 333.771C67.834 333.502 67.374 333.127 67.04 332.646C66.7119 332.16 66.5479 331.636 66.5479 331.073H68.1738C68.2031 331.618 68.4199 332.052 68.8242 332.374C69.2344 332.69 69.7734 332.849 70.4414 332.849C71.0566 332.849 71.5488 332.726 71.918 332.479C72.293 332.228 72.4805 331.894 72.4805 331.478ZM76.2598 333.147C76.2598 332.866 76.3418 332.632 76.5059 332.444C76.6758 332.257 76.9277 332.163 77.2617 332.163C77.5957 332.163 77.8477 332.257 78.0176 332.444C78.1934 332.632 78.2812 332.866 78.2812 333.147C78.2812 333.417 78.1934 333.643 78.0176 333.824C77.8477 334.006 77.5957 334.097 77.2617 334.097C76.9277 334.097 76.6758 334.006 76.5059 333.824C76.3418 333.643 76.2598 333.417 76.2598 333.147Z" fill="#071330"/>
<g filter="url(#filter0_d_0_38)">
<path d="M24 389C24 377.954 32.9543 369 44 369H501C512.046 369 521 377.954 521 389V429C521 440.046 512.046 449 501 449H44C32.9543 449 24 440.046 24 429V389Z" fill="white"/>
<path d="M25 389C25 378.507 33.5066 370 44 370H501C511.493 370 520 378.507 520 389V429C520 439.493 511.493 448 501 448H44C33.5066 448 25 439.493 25 429V389Z" stroke="white" stroke-width="2"/>
</g>
<path d="M64.3506 409.762H59.5693V413H65.1807V415H57.0791V402.914H65.1641V404.931H59.5693V407.812H64.3506V409.762ZM68.6919 406.019L68.7666 407.056C69.4085 406.254 70.269 405.853 71.3481 405.853C72.3 405.853 73.0083 406.132 73.4731 406.691C73.938 407.25 74.1759 408.085 74.187 409.198V415H71.7881V409.256C71.7881 408.747 71.6774 408.379 71.4561 408.152C71.2347 407.919 70.8667 407.803 70.3521 407.803C69.6769 407.803 69.1706 408.091 68.833 408.667V415H66.4341V406.019H68.6919ZM78.8853 403.811V406.019H80.4209V407.778H78.8853V412.261C78.8853 412.593 78.9489 412.831 79.0762 412.975C79.2035 413.118 79.4469 413.19 79.8066 413.19C80.0723 413.19 80.3075 413.171 80.5122 413.132V414.95C80.0418 415.094 79.5576 415.166 79.0596 415.166C77.3773 415.166 76.5195 414.317 76.4863 412.618V407.778H75.1748V406.019H76.4863V403.811H78.8853ZM85.8911 415.166C84.5741 415.166 83.5005 414.762 82.6704 413.954C81.8459 413.146 81.4336 412.07 81.4336 410.725V410.493C81.4336 409.591 81.6079 408.785 81.9565 408.077C82.3052 407.363 82.7977 406.815 83.4341 406.434C84.076 406.046 84.8065 405.853 85.6255 405.853C86.854 405.853 87.8197 406.24 88.5225 407.015C89.2308 407.789 89.585 408.888 89.585 410.31V411.29H83.8657C83.9432 411.876 84.1756 412.347 84.563 412.701C84.9559 413.055 85.4512 413.232 86.0488 413.232C86.973 413.232 87.6951 412.897 88.2153 412.228L89.394 413.547C89.0343 414.056 88.5474 414.455 87.9331 414.743C87.3188 415.025 86.6382 415.166 85.8911 415.166ZM85.6172 407.795C85.1413 407.795 84.7539 407.955 84.4551 408.276C84.1618 408.597 83.9736 409.057 83.8906 409.654H87.2275V409.463C87.2165 408.932 87.0726 408.523 86.7959 408.235C86.5192 407.942 86.1263 407.795 85.6172 407.795ZM96.0015 408.268C95.675 408.224 95.3872 408.202 95.1382 408.202C94.2306 408.202 93.6357 408.509 93.3535 409.123V415H90.9546V406.019H93.2207L93.2871 407.089C93.7686 406.265 94.4354 405.853 95.2876 405.853C95.5532 405.853 95.8022 405.889 96.0347 405.96L96.0015 408.268ZM105.531 415.166C104.214 415.166 103.14 414.762 102.31 413.954C101.486 413.146 101.073 412.07 101.073 410.725V410.493C101.073 409.591 101.248 408.785 101.596 408.077C101.945 407.363 102.437 406.815 103.074 406.434C103.716 406.046 104.446 405.853 105.265 405.853C106.494 405.853 107.459 406.24 108.162 407.015C108.87 407.789 109.225 408.888 109.225 410.31V411.29H103.505C103.583 411.876 103.815 412.347 104.203 412.701C104.596 413.055 105.091 413.232 105.688 413.232C106.613 413.232 107.335 412.897 107.855 412.228L109.034 413.547C108.674 414.056 108.187 414.455 107.573 414.743C106.958 415.025 106.278 415.166 105.531 415.166ZM105.257 407.795C104.781 407.795 104.394 407.955 104.095 408.276C103.801 408.597 103.613 409.057 103.53 409.654H106.867V409.463C106.856 408.932 106.712 408.523 106.436 408.235C106.159 407.942 105.766 407.795 105.257 407.795ZM112.844 406.019L112.918 407.023C113.555 406.243 114.415 405.853 115.5 405.853C116.657 405.853 117.451 406.309 117.882 407.222C118.513 406.309 119.412 405.853 120.58 405.853C121.554 405.853 122.279 406.138 122.755 406.708C123.231 407.272 123.469 408.124 123.469 409.264V415H121.062V409.272C121.062 408.763 120.962 408.393 120.763 408.16C120.563 407.922 120.212 407.803 119.708 407.803C118.989 407.803 118.491 408.146 118.214 408.833L118.223 415H115.824V409.281C115.824 408.761 115.721 408.384 115.517 408.152C115.312 407.919 114.963 407.803 114.471 407.803C113.79 407.803 113.298 408.085 112.993 408.65V415H110.594V406.019H112.844ZM130.524 415C130.414 414.784 130.333 414.516 130.284 414.195C129.703 414.842 128.947 415.166 128.018 415.166C127.138 415.166 126.407 414.911 125.826 414.402C125.251 413.893 124.963 413.251 124.963 412.477C124.963 411.525 125.314 410.794 126.017 410.285C126.725 409.776 127.746 409.519 129.08 409.513H130.184V408.999C130.184 408.583 130.076 408.251 129.86 408.002C129.65 407.753 129.315 407.629 128.856 407.629C128.452 407.629 128.134 407.726 127.901 407.919C127.674 408.113 127.561 408.379 127.561 408.716H125.162C125.162 408.196 125.323 407.715 125.644 407.272C125.965 406.829 126.418 406.483 127.005 406.234C127.591 405.98 128.25 405.853 128.98 405.853C130.087 405.853 130.964 406.132 131.612 406.691C132.265 407.244 132.591 408.025 132.591 409.032V412.925C132.597 413.777 132.716 414.422 132.948 414.859V415H130.524ZM128.541 413.332C128.895 413.332 129.221 413.254 129.52 413.099C129.819 412.939 130.04 412.726 130.184 412.46V410.916H129.288C128.087 410.916 127.448 411.331 127.37 412.161L127.362 412.302C127.362 412.601 127.467 412.847 127.677 413.041C127.888 413.235 128.175 413.332 128.541 413.332ZM136.966 415H134.559V406.019H136.966V415ZM134.417 403.694C134.417 403.335 134.536 403.039 134.774 402.806C135.018 402.574 135.347 402.458 135.762 402.458C136.172 402.458 136.498 402.574 136.742 402.806C136.985 403.039 137.107 403.335 137.107 403.694C137.107 404.06 136.982 404.358 136.733 404.591C136.49 404.823 136.166 404.939 135.762 404.939C135.358 404.939 135.032 404.823 134.783 404.591C134.539 404.358 134.417 404.06 134.417 403.694ZM141.481 415H139.074V402.25H141.481V415ZM143.59 413.821C143.59 413.439 143.717 413.13 143.972 412.892C144.232 412.654 144.556 412.535 144.943 412.535C145.336 412.535 145.66 412.654 145.914 412.892C146.174 413.13 146.304 413.439 146.304 413.821C146.304 414.198 146.177 414.505 145.922 414.743C145.668 414.975 145.341 415.091 144.943 415.091C144.55 415.091 144.226 414.975 143.972 414.743C143.717 414.505 143.59 414.198 143.59 413.821ZM148.537 413.821C148.537 413.439 148.664 413.13 148.919 412.892C149.179 412.654 149.503 412.535 149.89 412.535C150.283 412.535 150.607 412.654 150.861 412.892C151.121 413.13 151.251 413.439 151.251 413.821C151.251 414.198 151.124 414.505 150.87 414.743C150.615 414.975 150.289 415.091 149.89 415.091C149.497 415.091 149.174 414.975 148.919 414.743C148.664 414.505 148.537 414.198 148.537 413.821ZM153.484 413.821C153.484 413.439 153.612 413.13 153.866 412.892C154.126 412.654 154.45 412.535 154.837 412.535C155.23 412.535 155.554 412.654 155.809 412.892C156.069 413.13 156.199 413.439 156.199 413.821C156.199 414.198 156.071 414.505 155.817 414.743C155.562 414.975 155.236 415.091 154.837 415.091C154.444 415.091 154.121 414.975 153.866 414.743C153.612 414.505 153.484 414.198 153.484 413.821Z" fill="#071330"/>
<path d="M337 393C337 386.373 342.373 381 349 381H497C503.627 381 509 386.373 509 393V425C509 431.627 503.627 437 497 437H349C342.373 437 337 431.627 337 425V393Z" fill="#3D55F9"/>
<path d="M376.625 410.836H374.758V415H372.414V403.625H376.641C377.984 403.625 379.021 403.924 379.75 404.523C380.479 405.122 380.844 405.969 380.844 407.062C380.844 407.839 380.674 408.487 380.336 409.008C380.003 409.523 379.495 409.935 378.812 410.242L381.273 414.891V415H378.758L376.625 410.836ZM374.758 408.938H376.648C377.237 408.938 377.693 408.789 378.016 408.492C378.339 408.19 378.5 407.776 378.5 407.25C378.5 406.714 378.346 406.292 378.039 405.984C377.737 405.677 377.271 405.523 376.641 405.523H374.758V408.938ZM386.375 415.156C385.135 415.156 384.125 414.776 383.344 414.016C382.568 413.255 382.18 412.242 382.18 410.977V410.758C382.18 409.909 382.344 409.151 382.672 408.484C383 407.812 383.464 407.297 384.062 406.938C384.667 406.573 385.354 406.391 386.125 406.391C387.281 406.391 388.19 406.755 388.852 407.484C389.518 408.214 389.852 409.247 389.852 410.586V411.508H384.469C384.542 412.06 384.76 412.503 385.125 412.836C385.495 413.169 385.961 413.336 386.523 413.336C387.393 413.336 388.073 413.021 388.562 412.391L389.672 413.633C389.333 414.112 388.875 414.487 388.297 414.758C387.719 415.023 387.078 415.156 386.375 415.156ZM386.117 408.219C385.669 408.219 385.305 408.37 385.023 408.672C384.747 408.974 384.57 409.406 384.492 409.969H387.633V409.789C387.622 409.289 387.487 408.904 387.227 408.633C386.966 408.357 386.596 408.219 386.117 408.219ZM390.789 410.695C390.789 409.367 391.083 408.318 391.672 407.547C392.266 406.776 393.078 406.391 394.109 406.391C395.016 406.391 395.737 406.737 396.273 407.43L396.422 406.547H398.406V418.25H396.141V414.273C395.62 414.862 394.938 415.156 394.094 415.156C393.089 415.156 392.286 414.766 391.688 413.984C391.089 413.203 390.789 412.107 390.789 410.695ZM393.047 410.859C393.047 411.667 393.188 412.281 393.469 412.703C393.755 413.125 394.156 413.336 394.672 413.336C395.365 413.336 395.854 413.06 396.141 412.508V409.016C395.859 408.484 395.375 408.219 394.688 408.219C394.167 408.219 393.763 408.43 393.477 408.852C393.19 409.273 393.047 409.943 393.047 410.859ZM405.25 414.141C404.693 414.818 403.922 415.156 402.938 415.156C402.031 415.156 401.339 414.896 400.859 414.375C400.385 413.854 400.143 413.091 400.133 412.086V406.547H402.391V412.008C402.391 412.888 402.792 413.328 403.594 413.328C404.359 413.328 404.885 413.062 405.172 412.531V406.547H407.438V415H405.312L405.25 414.141ZM413.031 415.156C411.792 415.156 410.781 414.776 410 414.016C409.224 413.255 408.836 412.242 408.836 410.977V410.758C408.836 409.909 409 409.151 409.328 408.484C409.656 407.812 410.12 407.297 410.719 406.938C411.323 406.573 412.01 406.391 412.781 406.391C413.938 406.391 414.846 406.755 415.508 407.484C416.174 408.214 416.508 409.247 416.508 410.586V411.508H411.125C411.198 412.06 411.417 412.503 411.781 412.836C412.151 413.169 412.617 413.336 413.18 413.336C414.049 413.336 414.729 413.021 415.219 412.391L416.328 413.633C415.99 414.112 415.531 414.487 414.953 414.758C414.375 415.023 413.734 415.156 413.031 415.156ZM412.773 408.219C412.326 408.219 411.961 408.37 411.68 408.672C411.404 408.974 411.227 409.406 411.148 409.969H414.289V409.789C414.279 409.289 414.143 408.904 413.883 408.633C413.622 408.357 413.253 408.219 412.773 408.219ZM422.375 412.664C422.375 412.388 422.237 412.172 421.961 412.016C421.69 411.854 421.253 411.711 420.648 411.586C418.638 411.164 417.633 410.31 417.633 409.023C417.633 408.273 417.943 407.648 418.562 407.148C419.188 406.643 420.003 406.391 421.008 406.391C422.081 406.391 422.938 406.643 423.578 407.148C424.224 407.654 424.547 408.31 424.547 409.117H422.289C422.289 408.794 422.185 408.529 421.977 408.32C421.768 408.107 421.443 408 421 408C420.62 408 420.326 408.086 420.117 408.258C419.909 408.43 419.805 408.648 419.805 408.914C419.805 409.164 419.922 409.367 420.156 409.523C420.396 409.674 420.797 409.807 421.359 409.922C421.922 410.031 422.396 410.156 422.781 410.297C423.974 410.734 424.57 411.492 424.57 412.57C424.57 413.341 424.24 413.966 423.578 414.445C422.917 414.919 422.062 415.156 421.016 415.156C420.307 415.156 419.677 415.031 419.125 414.781C418.578 414.526 418.148 414.18 417.836 413.742C417.523 413.299 417.367 412.823 417.367 412.312H419.508C419.529 412.714 419.677 413.021 419.953 413.234C420.229 413.448 420.599 413.555 421.062 413.555C421.495 413.555 421.82 413.474 422.039 413.312C422.263 413.146 422.375 412.93 422.375 412.664ZM428.734 404.469V406.547H430.18V408.203H428.734V412.422C428.734 412.734 428.794 412.958 428.914 413.094C429.034 413.229 429.263 413.297 429.602 413.297C429.852 413.297 430.073 413.279 430.266 413.242V414.953C429.823 415.089 429.367 415.156 428.898 415.156C427.315 415.156 426.508 414.357 426.477 412.758V408.203H425.242V406.547H426.477V404.469H428.734ZM438.062 415H435.719V403.625H438.062V415ZM442.172 406.547L442.242 407.523C442.846 406.768 443.656 406.391 444.672 406.391C445.568 406.391 446.234 406.654 446.672 407.18C447.109 407.706 447.333 408.492 447.344 409.539V415H445.086V409.594C445.086 409.115 444.982 408.768 444.773 408.555C444.565 408.336 444.219 408.227 443.734 408.227C443.099 408.227 442.622 408.497 442.305 409.039V415H440.047V406.547H442.172ZM452.227 412.242L453.797 406.547H456.156L453.305 415H451.148L448.297 406.547H450.656L452.227 412.242ZM459.539 415H457.273V406.547H459.539V415ZM457.141 404.359C457.141 404.021 457.253 403.742 457.477 403.523C457.706 403.305 458.016 403.195 458.406 403.195C458.792 403.195 459.099 403.305 459.328 403.523C459.557 403.742 459.672 404.021 459.672 404.359C459.672 404.703 459.555 404.984 459.32 405.203C459.091 405.422 458.786 405.531 458.406 405.531C458.026 405.531 457.719 405.422 457.484 405.203C457.255 404.984 457.141 404.703 457.141 404.359ZM464.109 404.469V406.547H465.555V408.203H464.109V412.422C464.109 412.734 464.169 412.958 464.289 413.094C464.409 413.229 464.638 413.297 464.977 413.297C465.227 413.297 465.448 413.279 465.641 413.242V414.953C465.198 415.089 464.742 415.156 464.273 415.156C462.69 415.156 461.883 414.357 461.852 412.758V408.203H460.617V406.547H461.852V404.469H464.109ZM470.703 415.156C469.464 415.156 468.453 414.776 467.672 414.016C466.896 413.255 466.508 412.242 466.508 410.977V410.758C466.508 409.909 466.672 409.151 467 408.484C467.328 407.812 467.792 407.297 468.391 406.938C468.995 406.573 469.682 406.391 470.453 406.391C471.609 406.391 472.518 406.755 473.18 407.484C473.846 408.214 474.18 409.247 474.18 410.586V411.508H468.797C468.87 412.06 469.089 412.503 469.453 412.836C469.823 413.169 470.289 413.336 470.852 413.336C471.721 413.336 472.401 413.021 472.891 412.391L474 413.633C473.661 414.112 473.203 414.487 472.625 414.758C472.047 415.023 471.406 415.156 470.703 415.156ZM470.445 408.219C469.997 408.219 469.633 408.37 469.352 408.672C469.076 408.974 468.898 409.406 468.82 409.969H471.961V409.789C471.951 409.289 471.815 408.904 471.555 408.633C471.294 408.357 470.924 408.219 470.445 408.219Z" fill="white"/>
<path d="M44.4082 93.4995H31.5796V107H27.5483V76.4297H46.4868V79.7471H31.5796V90.2031H44.4082V93.4995ZM54.9272 107H51.043V84.2822H54.9272V107ZM50.728 78.2563C50.728 77.6265 50.917 77.0946 51.2949 76.6606C51.6868 76.2267 52.2607 76.0098 53.0166 76.0098C53.7725 76.0098 54.3464 76.2267 54.7383 76.6606C55.1302 77.0946 55.3262 77.6265 55.3262 78.2563C55.3262 78.8862 55.1302 79.4111 54.7383 79.8311C54.3464 80.251 53.7725 80.4609 53.0166 80.4609C52.2607 80.4609 51.6868 80.251 51.2949 79.8311C50.917 79.4111 50.728 78.8862 50.728 78.2563ZM64.8374 84.2822L64.9634 87.1377C66.6991 84.9541 68.9666 83.8623 71.7661 83.8623C76.5672 83.8623 78.9888 86.5708 79.0308 91.9878V107H75.1465V91.9668C75.1325 90.3291 74.7546 89.1183 74.0127 88.3345C73.2848 87.5506 72.144 87.1587 70.5903 87.1587C69.3306 87.1587 68.2248 87.4946 67.2729 88.1665C66.3211 88.8384 65.5793 89.7202 65.0474 90.812V107H61.1631V84.2822H64.8374ZM98.9141 107C98.6901 106.552 98.5081 105.754 98.3682 104.606C96.5625 106.482 94.4069 107.42 91.9014 107.42C89.6618 107.42 87.8211 106.79 86.3794 105.53C84.9517 104.257 84.2378 102.647 84.2378 100.701C84.2378 98.3356 85.1336 96.502 86.9253 95.2002C88.731 93.8844 91.2645 93.2266 94.5259 93.2266H98.3052V91.4419C98.3052 90.0841 97.8993 89.0063 97.0874 88.2085C96.2756 87.3966 95.0788 86.9907 93.4971 86.9907C92.1113 86.9907 90.9495 87.3407 90.0117 88.0405C89.0739 88.7404 88.605 89.5872 88.605 90.5811H84.6997C84.6997 89.4473 85.0986 88.3555 85.8965 87.3057C86.7083 86.2419 87.8001 85.402 89.1719 84.7861C90.5576 84.1702 92.0763 83.8623 93.728 83.8623C96.3455 83.8623 98.3962 84.5202 99.8799 85.8359C101.364 87.1377 102.133 88.9364 102.189 91.2319V101.688C102.189 103.774 102.455 105.432 102.987 106.664V107H98.9141ZM92.4683 104.04C93.686 104.04 94.8408 103.725 95.9326 103.095C97.0244 102.465 97.8153 101.646 98.3052 100.638V95.9771H95.2607C90.5016 95.9771 88.1221 97.3698 88.1221 100.155C88.1221 101.373 88.528 102.325 89.3398 103.011C90.1517 103.697 91.1945 104.04 92.4683 104.04ZM112.499 107H108.614V74.75H112.499V107ZM122.955 107H119.07V74.75H122.955V107ZM136.623 101.31L141.914 84.2822H146.071L136.938 110.506C135.524 114.286 133.278 116.175 130.198 116.175L129.463 116.112L128.015 115.839V112.69L129.064 112.774C130.38 112.774 131.402 112.508 132.13 111.976C132.872 111.444 133.481 110.471 133.957 109.058L134.817 106.748L126.713 84.2822H130.954L136.623 101.31ZM159.299 95.4521C159.299 91.9108 160.118 89.0973 161.755 87.0117C163.393 84.9121 165.563 83.8623 168.264 83.8623C171.036 83.8623 173.198 84.8421 174.752 86.8018L174.941 84.2822H178.489V106.454C178.489 109.394 177.614 111.71 175.865 113.404C174.129 115.097 171.792 115.944 168.852 115.944C167.214 115.944 165.612 115.594 164.044 114.895C162.476 114.195 161.279 113.236 160.454 112.018L162.469 109.688C164.135 111.745 166.172 112.774 168.579 112.774C170.469 112.774 171.938 112.242 172.988 111.178C174.052 110.114 174.584 108.617 174.584 106.685V104.732C173.03 106.524 170.91 107.42 168.222 107.42C165.563 107.42 163.407 106.349 161.755 104.208C160.118 102.066 159.299 99.1475 159.299 95.4521ZM163.204 95.8931C163.204 98.4546 163.729 100.47 164.779 101.94C165.829 103.396 167.298 104.124 169.188 104.124C171.638 104.124 173.436 103.011 174.584 100.785V90.4131C173.394 88.2435 171.61 87.1587 169.23 87.1587C167.34 87.1587 165.864 87.8936 164.8 89.3633C163.736 90.833 163.204 93.0096 163.204 95.8931ZM193.795 107.42C190.716 107.42 188.21 106.412 186.279 104.396C184.347 102.367 183.381 99.6584 183.381 96.271V95.5571C183.381 93.3035 183.808 91.2949 184.662 89.5312C185.53 87.7536 186.734 86.3678 188.273 85.374C189.827 84.3662 191.507 83.8623 193.312 83.8623C196.266 83.8623 198.562 84.8351 200.199 86.7808C201.837 88.7264 202.656 91.5119 202.656 95.1372V96.7539H187.266C187.322 98.9935 187.972 100.806 189.218 102.192C190.478 103.564 192.074 104.25 194.005 104.25C195.377 104.25 196.539 103.97 197.491 103.41C198.443 102.85 199.275 102.108 199.989 101.184L202.362 103.032C200.458 105.957 197.603 107.42 193.795 107.42ZM193.312 87.0537C191.745 87.0537 190.429 87.6276 189.365 88.7754C188.301 89.9092 187.644 91.5049 187.392 93.5625H198.771V93.2686C198.66 91.2949 198.128 89.7692 197.176 88.6914C196.224 87.5996 194.936 87.0537 193.312 87.0537ZM212.44 78.7812V84.2822H216.681V87.2847H212.44V101.373C212.44 102.283 212.629 102.969 213.007 103.431C213.385 103.879 214.029 104.103 214.938 104.103C215.386 104.103 216.002 104.019 216.786 103.851V107C215.764 107.28 214.771 107.42 213.805 107.42C212.069 107.42 210.76 106.895 209.878 105.845C208.997 104.795 208.556 103.305 208.556 101.373V87.2847H204.419V84.2822H208.556V78.7812H212.44ZM237.173 78.7812V84.2822H241.415V87.2847H237.173V101.373C237.173 102.283 237.362 102.969 237.74 103.431C238.118 103.879 238.762 104.103 239.672 104.103C240.12 104.103 240.736 104.019 241.52 103.851V107C240.498 107.28 239.504 107.42 238.538 107.42C236.802 107.42 235.494 106.895 234.612 105.845C233.73 104.795 233.289 103.305 233.289 101.373V87.2847H229.153V84.2822H233.289V78.7812H237.173ZM249.855 87.0327C251.577 84.9191 253.816 83.8623 256.574 83.8623C261.375 83.8623 263.796 86.5708 263.838 91.9878V107H259.954V91.9668C259.94 90.3291 259.562 89.1183 258.82 88.3345C258.092 87.5506 256.952 87.1587 255.398 87.1587C254.138 87.1587 253.032 87.4946 252.081 88.1665C251.129 88.8384 250.387 89.7202 249.855 90.812V107H245.971V74.75H249.855V87.0327ZM279.082 107.42C276.002 107.42 273.497 106.412 271.565 104.396C269.633 102.367 268.667 99.6584 268.667 96.271V95.5571C268.667 93.3035 269.094 91.2949 269.948 89.5312C270.816 87.7536 272.02 86.3678 273.56 85.374C275.113 84.3662 276.793 83.8623 278.599 83.8623C281.552 83.8623 283.848 84.8351 285.485 86.7808C287.123 88.7264 287.942 91.5119 287.942 95.1372V96.7539H272.552C272.608 98.9935 273.259 100.806 274.504 102.192C275.764 103.564 277.36 104.25 279.292 104.25C280.663 104.25 281.825 103.97 282.777 103.41C283.729 102.85 284.562 102.108 285.275 101.184L287.648 103.032C285.744 105.957 282.889 107.42 279.082 107.42ZM278.599 87.0537C277.031 87.0537 275.715 87.6276 274.651 88.7754C273.588 89.9092 272.93 91.5049 272.678 93.5625H284.058V93.2686C283.946 91.2949 283.414 89.7692 282.462 88.6914C281.51 87.5996 280.222 87.0537 278.599 87.0537ZM317.147 107C316.924 106.552 316.742 105.754 316.602 104.606C314.796 106.482 312.64 107.42 310.135 107.42C307.895 107.42 306.055 106.79 304.613 105.53C303.185 104.257 302.471 102.647 302.471 100.701C302.471 98.3356 303.367 96.502 305.159 95.2002C306.964 93.8844 309.498 93.2266 312.759 93.2266H316.539V91.4419C316.539 90.0841 316.133 89.0063 315.321 88.2085C314.509 87.3966 313.312 86.9907 311.73 86.9907C310.345 86.9907 309.183 87.3407 308.245 88.0405C307.307 88.7404 306.838 89.5872 306.838 90.5811H302.933C302.933 89.4473 303.332 88.3555 304.13 87.3057C304.942 86.2419 306.034 85.402 307.405 84.7861C308.791 84.1702 310.31 83.8623 311.961 83.8623C314.579 83.8623 316.63 84.5202 318.113 85.8359C319.597 87.1377 320.367 88.9364 320.423 91.2319V101.688C320.423 103.774 320.689 105.432 321.221 106.664V107H317.147ZM310.702 104.04C311.919 104.04 313.074 103.725 314.166 103.095C315.258 102.465 316.049 101.646 316.539 100.638V95.9771H313.494C308.735 95.9771 306.355 97.3698 306.355 100.155C306.355 101.373 306.761 102.325 307.573 103.011C308.385 103.697 309.428 104.04 310.702 104.04ZM330.186 84.2822L330.312 87.1377C332.048 84.9541 334.315 83.8623 337.115 83.8623C341.916 83.8623 344.337 86.5708 344.379 91.9878V107H340.495V91.9668C340.481 90.3291 340.103 89.1183 339.361 88.3345C338.633 87.5506 337.493 87.1587 335.939 87.1587C334.679 87.1587 333.573 87.4946 332.622 88.1665C331.67 88.8384 330.928 89.7202 330.396 90.812V107H326.512V84.2822H330.186ZM363.465 100.974C363.465 99.9243 363.066 99.1125 362.268 98.5386C361.484 97.9507 360.105 97.4468 358.132 97.0269C356.172 96.6069 354.611 96.103 353.45 95.5151C352.302 94.9272 351.448 94.2274 350.888 93.4155C350.342 92.6037 350.069 91.6379 350.069 90.5181C350.069 88.6564 350.853 87.0817 352.421 85.7939C354.003 84.5062 356.018 83.8623 358.468 83.8623C361.043 83.8623 363.129 84.5272 364.725 85.8569C366.334 87.1867 367.139 88.8874 367.139 90.959H363.234C363.234 89.8952 362.779 88.9784 361.869 88.2085C360.973 87.4386 359.84 87.0537 358.468 87.0537C357.054 87.0537 355.948 87.3617 355.15 87.9775C354.353 88.5934 353.954 89.3983 353.954 90.3921C353.954 91.3299 354.325 92.0368 355.066 92.5127C355.808 92.9886 357.145 93.4435 359.077 93.8774C361.022 94.3114 362.597 94.8293 363.801 95.4312C365.005 96.033 365.893 96.7609 366.467 97.6147C367.055 98.4546 367.349 99.4834 367.349 100.701C367.349 102.731 366.537 104.361 364.914 105.593C363.29 106.811 361.183 107.42 358.594 107.42C356.774 107.42 355.164 107.098 353.765 106.454C352.365 105.81 351.266 104.914 350.468 103.767C349.684 102.605 349.292 101.352 349.292 100.008H353.177C353.247 101.31 353.765 102.346 354.73 103.116C355.71 103.872 356.998 104.25 358.594 104.25C360.063 104.25 361.239 103.956 362.121 103.368C363.017 102.766 363.465 101.968 363.465 100.974ZM392.523 101.646L396.891 84.2822H400.775L394.161 107H391.012L385.49 89.7832L380.115 107H376.965L370.373 84.2822H374.236L378.708 101.289L383.999 84.2822H387.127L392.523 101.646ZM414.17 107.42C411.091 107.42 408.585 106.412 406.654 104.396C404.722 102.367 403.756 99.6584 403.756 96.271V95.5571C403.756 93.3035 404.183 91.2949 405.037 89.5312C405.905 87.7536 407.109 86.3678 408.648 85.374C410.202 84.3662 411.882 83.8623 413.688 83.8623C416.641 83.8623 418.937 84.8351 420.574 86.7808C422.212 88.7264 423.031 91.5119 423.031 95.1372V96.7539H407.641C407.697 98.9935 408.347 100.806 409.593 102.192C410.853 103.564 412.449 104.25 414.38 104.25C415.752 104.25 416.914 103.97 417.866 103.41C418.818 102.85 419.65 102.108 420.364 101.184L422.737 103.032C420.833 105.957 417.978 107.42 414.17 107.42ZM413.688 87.0537C412.12 87.0537 410.804 87.6276 409.74 88.7754C408.676 89.9092 408.019 91.5049 407.767 93.5625H419.146V93.2686C419.035 91.2949 418.503 89.7692 417.551 88.6914C416.599 87.5996 415.311 87.0537 413.688 87.0537ZM438.526 87.7676C437.938 87.6696 437.301 87.6206 436.615 87.6206C434.068 87.6206 432.339 88.7054 431.429 90.875V107H427.545V84.2822H431.324L431.387 86.9067C432.661 84.8771 434.467 83.8623 436.804 83.8623C437.56 83.8623 438.134 83.9603 438.526 84.1562V87.7676ZM455.344 100.974C455.344 99.9243 454.945 99.1125 454.147 98.5386C453.363 97.9507 451.984 97.4468 450.011 97.0269C448.051 96.6069 446.49 96.103 445.329 95.5151C444.181 94.9272 443.327 94.2274 442.767 93.4155C442.221 92.6037 441.948 91.6379 441.948 90.5181C441.948 88.6564 442.732 87.0817 444.3 85.7939C445.882 84.5062 447.897 83.8623 450.347 83.8623C452.922 83.8623 455.008 84.5272 456.604 85.8569C458.213 87.1867 459.018 88.8874 459.018 90.959H455.113C455.113 89.8952 454.658 88.9784 453.748 88.2085C452.852 87.4386 451.718 87.0537 450.347 87.0537C448.933 87.0537 447.827 87.3617 447.029 87.9775C446.231 88.5934 445.833 89.3983 445.833 90.3921C445.833 91.3299 446.203 92.0368 446.945 92.5127C447.687 92.9886 449.024 93.4435 450.956 93.8774C452.901 94.3114 454.476 94.8293 455.68 95.4312C456.883 96.033 457.772 96.7609 458.346 97.6147C458.934 98.4546 459.228 99.4834 459.228 100.701C459.228 102.731 458.416 104.361 456.792 105.593C455.169 106.811 453.062 107.42 450.473 107.42C448.653 107.42 447.043 107.098 445.644 106.454C444.244 105.81 443.145 104.914 442.347 103.767C441.563 102.605 441.171 101.352 441.171 100.008H445.056C445.126 101.31 445.644 102.346 446.609 103.116C447.589 103.872 448.877 104.25 450.473 104.25C451.942 104.25 453.118 103.956 454 103.368C454.896 102.766 455.344 101.968 455.344 100.974ZM30.6138 133.282L30.7397 136.138C32.4754 133.954 34.743 132.862 37.5425 132.862C42.3436 132.862 44.7651 135.571 44.8071 140.988V156H40.9229V140.967C40.9089 139.329 40.5309 138.118 39.7891 137.334C39.0612 136.551 37.9204 136.159 36.3667 136.159C35.1069 136.159 34.0011 136.495 33.0493 137.167C32.0975 137.838 31.3556 138.72 30.8237 139.812V156H26.9395V133.282H30.6138ZM60.0923 156.42C57.0129 156.42 54.5073 155.412 52.5757 153.396C50.644 151.367 49.6782 148.658 49.6782 145.271V144.557C49.6782 142.304 50.1051 140.295 50.959 138.531C51.8268 136.754 53.0306 135.368 54.5703 134.374C56.124 133.366 57.8037 132.862 59.6094 132.862C62.5628 132.862 64.8584 133.835 66.4961 135.781C68.1338 137.726 68.9526 140.512 68.9526 144.137V145.754H53.5625C53.6185 147.993 54.2694 149.806 55.5151 151.192C56.7749 152.564 58.3706 153.25 60.3022 153.25C61.674 153.25 62.8358 152.97 63.7876 152.41C64.7394 151.85 65.5723 151.108 66.2861 150.184L68.6587 152.032C66.755 154.957 63.8996 156.42 60.0923 156.42ZM59.6094 136.054C58.0417 136.054 56.7259 136.628 55.6621 137.775C54.5983 138.909 53.9404 140.505 53.6885 142.562H65.0684V142.269C64.9564 140.295 64.4245 138.769 63.4727 137.691C62.5208 136.6 61.2331 136.054 59.6094 136.054ZM82.894 156.42C79.8146 156.42 77.3091 155.412 75.3774 153.396C73.4458 151.367 72.48 148.658 72.48 145.271V144.557C72.48 142.304 72.9069 140.295 73.7607 138.531C74.6286 136.754 75.8324 135.368 77.3721 134.374C78.9258 133.366 80.6055 132.862 82.4111 132.862C85.3646 132.862 87.6602 133.835 89.2979 135.781C90.9355 137.726 91.7544 140.512 91.7544 144.137V145.754H76.3643C76.4202 147.993 77.0711 149.806 78.3169 151.192C79.5767 152.564 81.1724 153.25 83.104 153.25C84.4757 153.25 85.6375 152.97 86.5894 152.41C87.5412 151.85 88.374 151.108 89.0879 150.184L91.4604 152.032C89.5568 154.957 86.7013 156.42 82.894 156.42ZM82.4111 136.054C80.8434 136.054 79.5277 136.628 78.4639 137.775C77.4001 138.909 76.7422 140.505 76.4902 142.562H87.8701V142.269C87.7581 140.295 87.2262 138.769 86.2744 137.691C85.3226 136.6 84.0348 136.054 82.4111 136.054ZM95.3237 144.452C95.3237 140.967 96.1496 138.167 97.8013 136.054C99.453 133.926 101.616 132.862 104.289 132.862C106.949 132.862 109.055 133.772 110.609 135.592V123.75H114.493V156H110.924L110.735 153.564C109.181 155.468 107.019 156.42 104.247 156.42C101.616 156.42 99.467 155.342 97.8013 153.187C96.1496 151.031 95.3237 148.217 95.3237 144.746V144.452ZM99.208 144.893C99.208 147.469 99.7399 149.484 100.804 150.94C101.868 152.396 103.337 153.124 105.213 153.124C107.676 153.124 109.475 152.018 110.609 149.806V139.371C109.447 137.229 107.662 136.159 105.255 136.159C103.351 136.159 101.868 136.894 100.804 138.363C99.7399 139.833 99.208 142.01 99.208 144.893ZM129.967 156.42C126.888 156.42 124.382 155.412 122.451 153.396C120.519 151.367 119.553 148.658 119.553 145.271V144.557C119.553 142.304 119.98 140.295 120.834 138.531C121.702 136.754 122.906 135.368 124.445 134.374C125.999 133.366 127.679 132.862 129.484 132.862C132.438 132.862 134.733 133.835 136.371 135.781C138.009 137.726 138.828 140.512 138.828 144.137V145.754H123.438C123.493 147.993 124.144 149.806 125.39 151.192C126.65 152.564 128.246 153.25 130.177 153.25C131.549 153.25 132.711 152.97 133.663 152.41C134.614 151.85 135.447 151.108 136.161 150.184L138.534 152.032C136.63 154.957 133.775 156.42 129.967 156.42ZM129.484 136.054C127.917 136.054 126.601 136.628 125.537 137.775C124.473 138.909 123.815 140.505 123.563 142.562H134.943V142.269C134.831 140.295 134.299 138.769 133.348 137.691C132.396 136.6 131.108 136.054 129.484 136.054ZM142.397 144.452C142.397 140.967 143.223 138.167 144.875 136.054C146.526 133.926 148.689 132.862 151.362 132.862C154.022 132.862 156.128 133.772 157.682 135.592V123.75H161.566V156H157.997L157.808 153.564C156.254 155.468 154.092 156.42 151.32 156.42C148.689 156.42 146.54 155.342 144.875 153.187C143.223 151.031 142.397 148.217 142.397 144.746V144.452ZM146.281 144.893C146.281 147.469 146.813 149.484 147.877 150.94C148.941 152.396 150.41 153.124 152.286 153.124C154.75 153.124 156.548 152.018 157.682 149.806V139.371C156.52 137.229 154.736 136.159 152.328 136.159C150.424 136.159 148.941 136.894 147.877 138.363C146.813 139.833 146.281 142.01 146.281 144.893ZM180.19 156V136.285H176.6V133.282H180.19V130.952C180.19 128.516 180.841 126.633 182.143 125.304C183.444 123.974 185.285 123.309 187.665 123.309C188.56 123.309 189.449 123.428 190.331 123.666L190.121 126.815C189.463 126.689 188.763 126.626 188.021 126.626C186.762 126.626 185.789 126.997 185.103 127.739C184.417 128.467 184.074 129.517 184.074 130.889V133.282H188.924V136.285H184.074V156H180.19ZM192.2 144.431C192.2 142.206 192.634 140.204 193.501 138.426C194.383 136.649 195.601 135.277 197.155 134.311C198.722 133.345 200.507 132.862 202.509 132.862C205.602 132.862 208.101 133.933 210.004 136.075C211.922 138.216 212.881 141.065 212.881 144.62V144.893C212.881 147.105 212.454 149.092 211.6 150.856C210.76 152.606 209.549 153.97 207.968 154.95C206.4 155.93 204.594 156.42 202.551 156.42C199.471 156.42 196.973 155.349 195.055 153.208C193.152 151.066 192.2 148.231 192.2 144.704V144.431ZM196.105 144.893C196.105 147.413 196.686 149.435 197.848 150.961C199.023 152.487 200.591 153.25 202.551 153.25C204.524 153.25 206.092 152.48 207.254 150.94C208.416 149.386 208.997 147.217 208.997 144.431C208.997 141.94 208.402 139.924 207.212 138.384C206.036 136.831 204.468 136.054 202.509 136.054C200.591 136.054 199.044 136.817 197.869 138.342C196.693 139.868 196.105 142.052 196.105 144.893ZM228.733 136.768C228.145 136.67 227.508 136.621 226.822 136.621C224.275 136.621 222.546 137.705 221.636 139.875V156H217.752V133.282H221.531L221.594 135.907C222.868 133.877 224.674 132.862 227.011 132.862C227.767 132.862 228.341 132.96 228.733 133.156V136.768ZM246.874 136.033C248.595 133.919 250.835 132.862 253.592 132.862C258.393 132.862 260.815 135.571 260.857 140.988V156H256.973V140.967C256.959 139.329 256.581 138.118 255.839 137.334C255.111 136.551 253.97 136.159 252.417 136.159C251.157 136.159 250.051 136.495 249.099 137.167C248.147 137.838 247.405 138.72 246.874 139.812V156H242.989V123.75H246.874V136.033ZM276.1 156.42C273.021 156.42 270.515 155.412 268.583 153.396C266.652 151.367 265.686 148.658 265.686 145.271V144.557C265.686 142.304 266.113 140.295 266.967 138.531C267.835 136.754 269.038 135.368 270.578 134.374C272.132 133.366 273.812 132.862 275.617 132.862C278.571 132.862 280.866 133.835 282.504 135.781C284.142 137.726 284.96 140.512 284.96 144.137V145.754H269.57C269.626 147.993 270.277 149.806 271.523 151.192C272.783 152.564 274.378 153.25 276.31 153.25C277.682 153.25 278.844 152.97 279.795 152.41C280.747 151.85 281.58 151.108 282.294 150.184L284.667 152.032C282.763 154.957 279.907 156.42 276.1 156.42ZM275.617 136.054C274.049 136.054 272.734 136.628 271.67 137.775C270.606 138.909 269.948 140.505 269.696 142.562H281.076V142.269C280.964 140.295 280.432 138.769 279.48 137.691C278.529 136.6 277.241 136.054 275.617 136.054ZM303.5 156C303.276 155.552 303.094 154.754 302.954 153.606C301.148 155.482 298.993 156.42 296.487 156.42C294.248 156.42 292.407 155.79 290.965 154.53C289.538 153.257 288.824 151.647 288.824 149.701C288.824 147.336 289.72 145.502 291.511 144.2C293.317 142.884 295.85 142.227 299.112 142.227H302.891V140.442C302.891 139.084 302.485 138.006 301.673 137.208C300.861 136.397 299.665 135.991 298.083 135.991C296.697 135.991 295.535 136.341 294.598 137.041C293.66 137.74 293.191 138.587 293.191 139.581H289.286C289.286 138.447 289.685 137.355 290.482 136.306C291.294 135.242 292.386 134.402 293.758 133.786C295.144 133.17 296.662 132.862 298.314 132.862C300.931 132.862 302.982 133.52 304.466 134.836C305.95 136.138 306.719 137.936 306.775 140.232V150.688C306.775 152.774 307.041 154.432 307.573 155.664V156H303.5ZM297.054 153.04C298.272 153.04 299.427 152.725 300.519 152.095C301.61 151.465 302.401 150.646 302.891 149.638V144.977H299.847C295.088 144.977 292.708 146.37 292.708 149.155C292.708 150.373 293.114 151.325 293.926 152.011C294.738 152.697 295.78 153.04 297.054 153.04ZM317.084 156H313.2V123.75H317.084V156ZM328.59 127.781V133.282H332.832V136.285H328.59V150.373C328.59 151.283 328.779 151.969 329.157 152.431C329.535 152.879 330.179 153.103 331.089 153.103C331.537 153.103 332.153 153.019 332.937 152.851V156C331.915 156.28 330.921 156.42 329.955 156.42C328.219 156.42 326.911 155.895 326.029 154.845C325.147 153.795 324.706 152.305 324.706 150.373V136.285H320.57V133.282H324.706V127.781H328.59ZM341.272 136.033C342.994 133.919 345.233 132.862 347.991 132.862C352.792 132.862 355.213 135.571 355.255 140.988V156H351.371V140.967C351.357 139.329 350.979 138.118 350.237 137.334C349.509 136.551 348.369 136.159 346.815 136.159C345.555 136.159 344.449 136.495 343.498 137.167C342.546 137.838 341.804 138.72 341.272 139.812V156H337.388V123.75H341.272V136.033ZM368.504 150.31L373.795 133.282H377.952L368.819 159.506C367.405 163.286 365.159 165.175 362.079 165.175L361.344 165.112L359.896 164.839V161.69L360.945 161.774C362.261 161.774 363.283 161.508 364.011 160.976C364.753 160.444 365.361 159.471 365.837 158.058L366.698 155.748L358.594 133.282H362.835L368.504 150.31ZM405.331 149.974C405.331 148.924 404.932 148.112 404.134 147.539C403.35 146.951 401.972 146.447 399.998 146.027C398.038 145.607 396.478 145.103 395.316 144.515C394.168 143.927 393.314 143.227 392.754 142.416C392.208 141.604 391.936 140.638 391.936 139.518C391.936 137.656 392.719 136.082 394.287 134.794C395.869 133.506 397.884 132.862 400.334 132.862C402.91 132.862 404.995 133.527 406.591 134.857C408.201 136.187 409.005 137.887 409.005 139.959H405.1C405.1 138.895 404.645 137.978 403.735 137.208C402.84 136.439 401.706 136.054 400.334 136.054C398.92 136.054 397.814 136.362 397.017 136.978C396.219 137.593 395.82 138.398 395.82 139.392C395.82 140.33 396.191 141.037 396.933 141.513C397.674 141.989 399.011 142.444 400.943 142.877C402.889 143.311 404.463 143.829 405.667 144.431C406.871 145.033 407.76 145.761 408.333 146.615C408.921 147.455 409.215 148.483 409.215 149.701C409.215 151.731 408.403 153.361 406.78 154.593C405.156 155.811 403.049 156.42 400.46 156.42C398.64 156.42 397.031 156.098 395.631 155.454C394.231 154.81 393.132 153.914 392.334 152.767C391.551 151.605 391.159 150.352 391.159 149.008H395.043C395.113 150.31 395.631 151.346 396.597 152.116C397.576 152.872 398.864 153.25 400.46 153.25C401.93 153.25 403.105 152.956 403.987 152.368C404.883 151.766 405.331 150.968 405.331 149.974ZM420.616 145.481L418.181 148.021V156H414.296V123.75H418.181V143.255L420.259 140.757L427.335 133.282H432.059L423.22 142.772L433.088 156H428.532L420.616 145.481ZM440.29 156H436.405V133.282H440.29V156ZM436.09 127.256C436.09 126.626 436.279 126.095 436.657 125.661C437.049 125.227 437.623 125.01 438.379 125.01C439.135 125.01 439.709 125.227 440.101 125.661C440.493 126.095 440.688 126.626 440.688 127.256C440.688 127.886 440.493 128.411 440.101 128.831C439.709 129.251 439.135 129.461 438.379 129.461C437.623 129.461 437.049 129.251 436.657 128.831C436.279 128.411 436.09 127.886 436.09 127.256ZM450.2 133.282L450.326 136.138C452.061 133.954 454.329 132.862 457.128 132.862C461.93 132.862 464.351 135.571 464.393 140.988V156H460.509V140.967C460.495 139.329 460.117 138.118 459.375 137.334C458.647 136.551 457.506 136.159 455.953 136.159C454.693 136.159 453.587 136.495 452.635 137.167C451.683 137.838 450.942 138.72 450.41 139.812V156H446.525V133.282H450.2Z" fill="#071330"/>
<defs>
<filter id="filter0_d_0_38" x="0" y="353" width="545" height="128" filterUnits="userSpaceOnUse" color-interpolation-filters="sRGB">
<feFlood flood-opacity="0" result="BackgroundImageFix"/>
<feColorMatrix in="SourceAlpha" type="matrix" values="0 0 0 0 0 0 0 0 0 0 0 0 0 0 0 0 0 0 127 0" result="hardAlpha"/>
<feOffset dy="8"/>
<feGaussianBlur stdDeviation="12"/>
<feColorMatrix type="matrix" values="0 0 0 0 0.027451 0 0 0 0 0.0745098 0 0 0 0 0.188235 0 0 0 0.06 0"/>
<feBlend mode="normal" in2="BackgroundImageFix" result="effect1_dropShadow_0_38"/>
<feBlend mode="normal" in="SourceGraphic" in2="effect1_dropShadow_0_38" result="shape"/>
</filter>
</defs>
</svg>
